<?xml version="1.0" encoding="UTF-8" standalone="no"?>
<!DOCTYPE svg PUBLIC "-//W3C//DTD SVG 1.1//EN"
 "http://www.w3.org/Graphics/SVG/1.1/DTD/svg11.dtd">
<!-- Generated by graphviz version 16.1.0 (20260904.0139)
 -->
<!-- Title: Easy_Copier.ViewModels.MainViewModel.ValidateAndRefreshCacheAsync Pages: 1 -->
<svg width="594pt" height="40pt"
 viewBox="0.00 0.00 594.00 40.00" xmlns="http://www.w3.org/2000/svg" xmlns:xlink="http://www.w3.org/1999/xlink">
<g id="graph0" class="graph" transform="scale(1 1) rotate(0) translate(4 36)">
<title>Easy_Copier.ViewModels.MainViewModel.ValidateAndRefreshCacheAsync</title>
<!-- Node1 -->
<g id="Node000001" class="node">
<title>Node1</title>
<g id="a_Node000001"><a xlink:title=" ">
<polygon fill="#999999" stroke="#666666" points="585.75,-32 376.25,-32 376.25,0 585.75,0 585.75,-32"/>
<text xml:space="preserve" text-anchor="start" x="384.25" y="-18.5" font-family="Helvetica,sans-Serif" font-size="10.00">Easy_Copier.ViewModels.Main</text>
<text xml:space="preserve" text-anchor="middle" x="481" y="-6.5" font-family="Helvetica,sans-Serif" font-size="10.00">ViewModel.ValidateAndRefreshCacheAsync</text>
</a>
</g>
</g>
<!-- Node2 -->
<g id="Node000002" class="node">
<title>Node2</title>
<g id="a_Node000002"><a xlink:href="class_easy___copier_1_1_view_models_1_1_main_view_model.html#a7ec049730d16773f05f8c87da648d961" target="_top" xlink:title=" ">
<polygon fill="white" stroke="#666666" points="340.25,-32 187.75,-32 187.75,0 340.25,0 340.25,-32"/>
<text xml:space="preserve" text-anchor="start" x="195.75" y="-18.5" font-family="Helvetica,sans-Serif" font-size="10.00">Easy_Copier.ViewModels.Main</text>
<text xml:space="preserve" text-anchor="middle" x="264" y="-6.5" font-family="Helvetica,sans-Serif" font-size="10.00">ViewModel.InitializeAsync</text>
</a>
</g>
</g>
<!-- Node1&#45;&gt;Node2 -->
<g id="edge1_Node000001_Node000002" class="edge">
<title>Node1&#45;&gt;Node2</title>
<g id="a_edge1_Node000001_Node000002"><a xlink:title=" ">
<path fill="none" stroke="#63b8ff" d="M364.53,-16C356.46,-16 348.45,-16 340.68,-16"/>
<polygon fill="#63b8ff" stroke="#63b8ff" points="364.45,-19.5 374.45,-16 364.45,-12.5 364.45,-19.5"/>
</a>
</g>
</g>
<!-- Node3 -->
<g id="Node000003" class="node">
<title>Node3</title>
<g id="a_Node000003"><a xlink:href="class_easy___copier_1_1_views_1_1_main_page.html#a1892f28feb0fd22b9cff5ebb690f1bea" target="_top" xlink:title=" ">
<polygon fill="white" stroke="#666666" points="151.75,-32 0,-32 0,0 151.75,0 151.75,-32"/>
<text xml:space="preserve" text-anchor="start" x="8" y="-18.5" font-family="Helvetica,sans-Serif" font-size="10.00">Easy_Copier.Views.MainPage.</text>
<text xml:space="preserve" text-anchor="middle" x="75.88" y="-6.5" font-family="Helvetica,sans-Serif" font-size="10.00">OnNavigatedTo</text>
</a>
</g>
</g>
<!-- Node2&#45;&gt;Node3 -->
<g id="edge2_Node000002_Node000003" class="edge">
<title>Node2&#45;&gt;Node3</title>
<g id="a_edge2_Node000002_Node000003"><a xlink:title=" ">
<path fill="none" stroke="#63b8ff" d="M175.81,-16C167.92,-16 159.98,-16 152.21,-16"/>
<polygon fill="#63b8ff" stroke="#63b8ff" points="175.78,-19.5 185.78,-16 175.78,-12.5 175.78,-19.5"/>
</a>
</g>
</g>
</g>
</svg>
