<?xml version="1.0" encoding="UTF-8" standalone="no"?>
<!DOCTYPE svg PUBLIC "-//W3C//DTD SVG 1.1//EN"
 "http://www.w3.org/Graphics/SVG/1.1/DTD/svg11.dtd">
<!-- Generated by graphviz version 16.1.0 (20260904.0139)
 -->
<!-- Title: Easy_Copier.Views.OsImagesTabView.GameCard_RightTapped Pages: 1 -->
<!--zoomable 146 -->

<svg id="main" version="1.1" xmlns="http://www.w3.org/2000/svg" xmlns:xlink="http://www.w3.org/1999/xlink" xml:space="preserve">

<style type="text/css"><![CDATA[
.node, .edge {opacity: 0.7;}
.node.selected, .edge.selected {opacity: 1;}
.edge:hover path { stroke: red; }
.edge:hover polygon { stroke: red; fill: red; }
]]></style>

<defs>
  <circle id="rim" cx="0" cy="0" r="7"/>
  <circle id="rim2" cx="0" cy="0" r="3.5"/>
  <g id="zoomPlus">
    <use xlink:href="#rim" fill="#404040"><set attributeName="fill" to="#808080" begin="zoomplus.mouseover" end="zoomplus.mouseout"/></use>
    <path d="M-4,0h8M0,-4v8" fill="none" stroke="white" stroke-width="1.5" pointer-events="none"/>
  </g>
  <g id="zoomMin">
    <use xlink:href="#rim" fill="#404040"><set attributeName="fill" to="#808080" begin="zoomminus.mouseover" end="zoomminus.mouseout"/></use>
    <path d="M-4,0h8" fill="none" stroke="white" stroke-width="1.5" pointer-events="none"/>
  </g>
  <g id="arrowUp" transform="translate(30 24)">
    <use xlink:href="#rim"/>
    <path pointer-events="none" fill="none" stroke="white" stroke-width="1.5" d="M0,-3.0v7 M-2.5,-0.5L0,-3.0L2.5,-0.5"/>
  </g>
  <g id="arrowRight" transform="rotate(90) translate(36 -43)">
    <use xlink:href="#rim"/>
    <path pointer-events="none" fill="none" stroke="white" stroke-width="1.5" d="M0,-3.0v7 M-2.5,-0.5L0,-3.0L2.5,-0.5"/>
  </g>
  <g id="arrowDown" transform="rotate(180) translate(-30 -48)">
    <use xlink:href="#rim"/>
    <path pointer-events="none" fill="none" stroke="white" stroke-width="1.5" d="M0,-3.0v7 M-2.5,-0.5L0,-3.0L2.5,-0.5"/>
  </g>
  <g id="arrowLeft" transform="rotate(270) translate(-36 17)">
    <use xlink:href="#rim"/>
    <path pointer-events="none" fill="none" stroke="white" stroke-width="1.5" d="M0,-3.0v7 M-2.5,-0.5L0,-3.0L2.5,-0.5"/>
  </g>
  <g id="resetDef">
    <use xlink:href="#rim2" fill="#404040"><set attributeName="fill" to="#808080" begin="reset.mouseover" end="reset.mouseout"/></use>
  </g>
</defs>
<script type="application/ecmascript" xlink:href="svg.min.js"/>
<svg id="graph" class="graph" data-view-width="574" data-view-height="146" data-section-id="dynsection-4">
<g id="viewport">
<title>Easy_Copier.Views.OsImagesTabView.GameCard_RightTapped</title>
<!-- Node1 -->
<g id="Node000001" class="node">
<title>Node1</title>
<g id="a_Node000001"><a xlink:title=" ">
<polygon fill="#999999" stroke="#666666" points="163,-82 0,-82 0,-50 163,-50 163,-82"/>
<text xml:space="preserve" text-anchor="start" x="8" y="-68.5" font-family="Helvetica,sans-Serif" font-size="10.00">Easy_Copier.Views.OsImages</text>
<text xml:space="preserve" text-anchor="middle" x="81.5" y="-56.5" font-family="Helvetica,sans-Serif" font-size="10.00">TabView.GameCard_RightTapped</text>
</a>
</g>
</g>
<!-- Node2 -->
<g id="Node000002" class="node">
<title>Node2</title>
<g id="a_Node000002"><a xlink:href="class_easy___copier_1_1_infrastructure_1_1_flyout_helper.html#a7129d8af4e5b49e0b85728bbf84bc228" target="_top" xlink:title="Displays the OS image details flyout when right&#45;tapping an OS image card.">
<polygon fill="white" stroke="#666666" points="368.75,-88 199,-88 199,-44 368.75,-44 368.75,-88"/>
<text xml:space="preserve" text-anchor="start" x="207" y="-74.5" font-family="Helvetica,sans-Serif" font-size="10.00">Easy_Copier.Infrastructure.</text>
<text xml:space="preserve" text-anchor="start" x="207" y="-62.5" font-family="Helvetica,sans-Serif" font-size="10.00">FlyoutHelper.ShowOsImageDetails</text>
<text xml:space="preserve" text-anchor="middle" x="283.88" y="-50.5" font-family="Helvetica,sans-Serif" font-size="10.00">Flyout</text>
</a>
</g>
</g>
<!-- Node1&#45;&gt;Node2 -->
<g id="edge1_Node000001_Node000002" class="edge">
<title>Node1&#45;&gt;Node2</title>
<g id="a_edge1_Node000001_Node000002"><a xlink:title=" ">
<path fill="none" stroke="#63b8ff" d="M163.42,-66C171.32,-66 179.39,-66 187.41,-66"/>
<polygon fill="#63b8ff" stroke="#63b8ff" points="187.2,-69.5 197.2,-66 187.2,-62.5 187.2,-69.5"/>
</a>
</g>
</g>
<!-- Node3 -->
<g id="Node000003" class="node">
<title>Node3</title>
<g id="a_Node000003"><a xlink:href="namespace_easy___copier_1_1_models.html#a9c2abd1d64352c07d3085ba499cf2aae" target="_top" xlink:title=" ">
<polygon fill="white" stroke="#666666" points="564.75,-120 405.5,-120 405.5,-100 564.75,-100 564.75,-120"/>
<text xml:space="preserve" text-anchor="middle" x="485.12" y="-106.5" font-family="Helvetica,sans-Serif" font-size="10.00">Easy_Copier.Models.GameEntry</text>
</a>
</g>
</g>
<!-- Node2&#45;&gt;Node3 -->
<g id="edge2_Node000002_Node000003" class="edge">
<title>Node2&#45;&gt;Node3</title>
<g id="a_edge2_Node000002_Node000003"><a xlink:title=" ">
<path fill="none" stroke="#63b8ff" d="M369.09,-84.6C388.17,-88.81 408.03,-93.2 425.76,-97.11"/>
<polygon fill="#63b8ff" stroke="#63b8ff" points="424.8,-100.48 435.32,-99.22 426.31,-93.65 424.8,-100.48"/>
</a>
</g>
</g>
<!-- Node4 -->
<g id="Node000004" class="node">
<title>Node4</title>
<g id="a_Node000004"><a xlink:href="class_easy___copier_1_1_view_models_1_1_os_image_details_view_model.html#a4da5a2ff8f4938af03fe4c9322dd53f5" target="_top" xlink:title=" ">
<polygon fill="white" stroke="#666666" points="565.5,-82 404.75,-82 404.75,-50 565.5,-50 565.5,-82"/>
<text xml:space="preserve" text-anchor="start" x="412.75" y="-68.5" font-family="Helvetica,sans-Serif" font-size="10.00">Easy_Copier.ViewModels.Os</text>
<text xml:space="preserve" text-anchor="middle" x="485.12" y="-56.5" font-family="Helvetica,sans-Serif" font-size="10.00">ImageDetailsViewModel.Initialize</text>
</a>
</g>
</g>
<!-- Node2&#45;&gt;Node4 -->
<g id="edge4_Node000002_Node000004" class="edge">
<title>Node2&#45;&gt;Node4</title>
<g id="a_edge4_Node000002_Node000004"><a xlink:title=" ">
<path fill="none" stroke="#63b8ff" d="M369.09,-66C377.03,-66 385.1,-66 393.1,-66"/>
<polygon fill="#63b8ff" stroke="#63b8ff" points="392.83,-69.5 402.83,-66 392.83,-62.5 392.83,-69.5"/>
</a>
</g>
</g>
<!-- Node5 -->
<g id="Node000005" class="node">
<title>Node5</title>
<g id="a_Node000005"><a xlink:href="class_easy___copier_1_1_infrastructure_1_1_flyout_helper.html#aa507f17416e85f5f75287778e50b473b" target="_top" xlink:title=" ">
<polygon fill="white" stroke="#666666" points="553.12,-32 417.12,-32 417.12,0 553.12,0 553.12,-32"/>
<text xml:space="preserve" text-anchor="start" x="425.12" y="-18.5" font-family="Helvetica,sans-Serif" font-size="10.00">Easy_Copier.Infrastructure.</text>
<text xml:space="preserve" text-anchor="middle" x="485.12" y="-6.5" font-family="Helvetica,sans-Serif" font-size="10.00">FlyoutHelper.PresentFlyout</text>
</a>
</g>
</g>
<!-- Node2&#45;&gt;Node5 -->
<g id="edge5_Node000002_Node000005" class="edge">
<title>Node2&#45;&gt;Node5</title>
<g id="a_edge5_Node000002_Node000005"><a xlink:title=" ">
<path fill="none" stroke="#63b8ff" d="M369.09,-44.87C381.9,-41.65 395.06,-38.35 407.7,-35.18"/>
<polygon fill="#63b8ff" stroke="#63b8ff" points="408.33,-38.63 417.18,-32.8 406.63,-31.84 408.33,-38.63"/>
</a>
</g>
</g>
<!-- Node3&#45;&gt;Node3 -->
<g id="edge3_Node000003_Node000003" class="edge">
<title>Node3&#45;&gt;Node3</title>
<g id="a_edge3_Node000003_Node000003"><a xlink:title=" ">
<path fill="none" stroke="#63b8ff" d="M453.15,-120.34C439.48,-128.98 450.14,-138 485.12,-138 504.8,-138 516.78,-135.14 521.07,-131.11"/>
<polygon fill="#63b8ff" stroke="#63b8ff" points="524.37,-129.93 517.62,-121.76 517.8,-132.35 524.37,-129.93"/>
</a>
</g>
</g>
</g>
</svg>

<g id="navigator" transform="translate(0 0)" fill="#404254">
  <rect fill="#f2f5e9" fill-opacity="0.5" stroke="#606060" stroke-width=".5" x="0" y="0" width="60" height="60"/>
  <use id="zoomplus" xlink:href="#zoomPlus" x="17" y="9" data-zoom="in"/>
  <use id="zoomminus" xlink:href="#zoomMin" x="42" y="9" data-zoom="out"/>
  <use id="reset" xlink:href="#resetDef" x="30" y="36" data-reset="true"/>
  <use id="arrowup" xlink:href="#arrowUp" x="0" y="0" data-pan-x="0" data-pan-y="-1"/>
  <use id="arrowright" xlink:href="#arrowRight" x="0" y="0" data-pan-x="1" data-pan-y="0"/>
  <use id="arrowdown" xlink:href="#arrowDown" x="0" y="0" data-pan-x="0" data-pan-y="1"/>
  <use id="arrowleft" xlink:href="#arrowLeft" x="0" y="0" data-pan-x="-1" data-pan-y="0"/>
</g>
<svg viewBox="0 0 15 15" width="100%" height="30px" preserveAspectRatio="xMaxYMin meet">
 <g id="arrow_out" transform="scale(0.3 0.3)">
  <a xlink:href="class_easy___copier_1_1_views_1_1_os_images_tab_view_adf0ba063d48705c3526daa00139ade60_cgraph_org.svg" target="_base">
   <rect id="button" ry="5" rx="5" y="6" x="6" height="38" width="38"
        fill="#f2f5e9" fill-opacity="0.5" stroke="#606060" stroke-width="1.0"/>
   <path id="arrow"
     d="M 11.500037,31.436501 C 11.940474,20.09759 22.043105,11.32322 32.158766,21.979434 L 37.068811,17.246167 C 37.068811,17.246167 37.088388,32 37.088388,32 L 22.160133,31.978069 C 22.160133,31.978069 26.997745,27.140456 26.997745,27.140456 C 18.528582,18.264221 13.291696,25.230495 11.500037,31.436501 z"
     style="fill:#404040;"/>
  </a>
 </g>
</svg>

<style type='text/css'>
<![CDATA[
[data-mouse-over-selected='false'] { opacity: 0.7; }
[data-mouse-over-selected='true']  { opacity: 1.0; }
]]>
</style>
</svg>
