<?xml version="1.0" encoding="UTF-8" standalone="no"?>
<!DOCTYPE svg PUBLIC "-//W3C//DTD SVG 1.1//EN"
 "http://www.w3.org/Graphics/SVG/1.1/DTD/svg11.dtd">
<!-- Generated by graphviz version 16.1.0 (20260904.0139)
 -->
<!-- Title: Easy_Copier.ViewModels.MainViewModel.OpenInRufusAsync Pages: 1 -->
<svg width="851pt" height="108pt"
 viewBox="0.00 0.00 851.00 108.00" xmlns="http://www.w3.org/2000/svg" xmlns:xlink="http://www.w3.org/1999/xlink">
<g id="graph0" class="graph" transform="scale(1 1) rotate(0) translate(4 104)">
<title>Easy_Copier.ViewModels.MainViewModel.OpenInRufusAsync</title>
<!-- Node1 -->
<g id="Node000001" class="node">
<title>Node1</title>
<g id="a_Node000001"><a xlink:title=" ">
<polygon fill="#999999" stroke="#666666" points="152.5,-63 0,-63 0,-31 152.5,-31 152.5,-63"/>
<text xml:space="preserve" text-anchor="start" x="8" y="-49.5" font-family="Helvetica,sans-Serif" font-size="10.00">Easy_Copier.ViewModels.Main</text>
<text xml:space="preserve" text-anchor="middle" x="76.25" y="-37.5" font-family="Helvetica,sans-Serif" font-size="10.00">ViewModel.OpenInRufusAsync</text>
</a>
</g>
</g>
<!-- Node2 -->
<g id="Node000002" class="node">
<title>Node2</title>
<g id="a_Node000002"><a xlink:href="namespace_easy___copier_1_1_models.html#a9c2abd1d64352c07d3085ba499cf2aae" target="_top" xlink:title=" ">
<polygon fill="white" stroke="#666666" points="359.75,-82 200.5,-82 200.5,-62 359.75,-62 359.75,-82"/>
<text xml:space="preserve" text-anchor="middle" x="280.12" y="-68.5" font-family="Helvetica,sans-Serif" font-size="10.00">Easy_Copier.Models.GameEntry</text>
</a>
</g>
</g>
<!-- Node1&#45;&gt;Node2 -->
<g id="edge1_Node000001_Node000002" class="edge">
<title>Node1&#45;&gt;Node2</title>
<g id="a_edge1_Node000001_Node000002"><a xlink:title=" ">
<path fill="none" stroke="#63b8ff" d="M153,-56.38C164.7,-57.83 176.88,-59.34 188.86,-60.82"/>
<polygon fill="#63b8ff" stroke="#63b8ff" points="188.4,-64.29 198.76,-62.05 189.26,-57.34 188.4,-64.29"/>
</a>
</g>
</g>
<!-- Node3 -->
<g id="Node000003" class="node">
<title>Node3</title>
<g id="a_Node000003"><a xlink:href="class_easy___copier_1_1_infrastructure_1_1_rufus_resolution_helper.html#a99c0f58c87b73206f2635dbc1e95a235" target="_top" xlink:title="Given a configured Rufus path (with optional environment variables), expands environment variables,...">
<polygon fill="white" stroke="#666666" points="371.75,-44 188.5,-44 188.5,0 371.75,0 371.75,-44"/>
<text xml:space="preserve" text-anchor="start" x="196.5" y="-30.5" font-family="Helvetica,sans-Serif" font-size="10.00">Easy_Copier.Infrastructure.</text>
<text xml:space="preserve" text-anchor="start" x="196.5" y="-18.5" font-family="Helvetica,sans-Serif" font-size="10.00">RufusResolutionHelper.ResolveLatest</text>
<text xml:space="preserve" text-anchor="middle" x="280.12" y="-6.5" font-family="Helvetica,sans-Serif" font-size="10.00">RufusPath</text>
</a>
</g>
</g>
<!-- Node1&#45;&gt;Node3 -->
<g id="edge3_Node000001_Node000003" class="edge">
<title>Node1&#45;&gt;Node3</title>
<g id="a_edge3_Node000001_Node000003"><a xlink:title=" ">
<path fill="none" stroke="#63b8ff" d="M153,-37.62C160.83,-36.65 168.88,-35.65 176.94,-34.66"/>
<polygon fill="#63b8ff" stroke="#63b8ff" points="177.32,-38.13 186.81,-33.43 176.46,-31.19 177.32,-38.13"/>
</a>
</g>
</g>
<!-- Node2&#45;&gt;Node2 -->
<g id="edge2_Node000002_Node000002" class="edge">
<title>Node2&#45;&gt;Node2</title>
<g id="a_edge2_Node000002_Node000002"><a xlink:title=" ">
<path fill="none" stroke="#63b8ff" d="M247.73,-82.34C233.89,-90.98 244.69,-100 280.12,-100 300.06,-100 312.2,-97.14 316.54,-93.11"/>
<polygon fill="#63b8ff" stroke="#63b8ff" points="319.82,-91.9 313.05,-83.76 313.27,-94.35 319.82,-91.9"/>
</a>
</g>
</g>
<!-- Node4 -->
<g id="Node000004" class="node">
<title>Node4</title>
<g id="a_Node000004"><a xlink:href="class_easy___copier_1_1_infrastructure_1_1_rufus_resolution_helper.html#a86bc01b0f77e23145af9cac4b03c01a2" target="_top" xlink:title="Attempts to parse a Version object from a Rufus filename (e.g., rufus&#45;4.7.exe =&gt; Version 4....">
<polygon fill="white" stroke="#666666" points="600,-44 407.75,-44 407.75,0 600,0 600,-44"/>
<text xml:space="preserve" text-anchor="start" x="415.75" y="-30.5" font-family="Helvetica,sans-Serif" font-size="10.00">Easy_Copier.Infrastructure.</text>
<text xml:space="preserve" text-anchor="start" x="415.75" y="-18.5" font-family="Helvetica,sans-Serif" font-size="10.00">RufusResolutionHelper.TryParseVersion</text>
<text xml:space="preserve" text-anchor="middle" x="503.88" y="-6.5" font-family="Helvetica,sans-Serif" font-size="10.00">FromFileName</text>
</a>
</g>
</g>
<!-- Node3&#45;&gt;Node4 -->
<g id="edge4_Node000003_Node000004" class="edge">
<title>Node3&#45;&gt;Node4</title>
<g id="a_edge4_Node000003_Node000004"><a xlink:title=" ">
<path fill="none" stroke="#63b8ff" d="M371.96,-22C379.93,-22 388.04,-22 396.12,-22"/>
<polygon fill="#63b8ff" stroke="#63b8ff" points="395.99,-25.5 405.99,-22 395.99,-18.5 395.99,-25.5"/>
</a>
</g>
</g>
<!-- Node5 -->
<g id="Node000005" class="node">
<title>Node5</title>
<g id="a_Node000005"><a xlink:href="class_easy___copier_1_1_infrastructure_1_1_rufus_resolution_helper.html#aff74fa2f29453c47964c6d4e5ef6de2a" target="_top" xlink:title=" ">
<polygon fill="white" stroke="#666666" points="843.25,-38 636,-38 636,-6 843.25,-6 843.25,-38"/>
<text xml:space="preserve" text-anchor="start" x="644" y="-24.5" font-family="Helvetica,sans-Serif" font-size="10.00">Easy_Copier.Infrastructure.</text>
<text xml:space="preserve" text-anchor="middle" x="739.62" y="-12.5" font-family="Helvetica,sans-Serif" font-size="10.00">RufusResolutionHelper.RufusVersionRegex</text>
</a>
</g>
</g>
<!-- Node4&#45;&gt;Node5 -->
<g id="edge5_Node000004_Node000005" class="edge">
<title>Node4&#45;&gt;Node5</title>
<g id="a_edge5_Node000004_Node000005"><a xlink:title=" ">
<path fill="none" stroke="#63b8ff" d="M600.29,-22C608.18,-22 616.21,-22 624.22,-22"/>
<polygon fill="#63b8ff" stroke="#63b8ff" points="624.01,-25.5 634.01,-22 624.01,-18.5 624.01,-25.5"/>
</a>
</g>
</g>
</g>
</svg>
