<?xml version="1.0" encoding="UTF-8" standalone="no"?>
<!DOCTYPE svg PUBLIC "-//W3C//DTD SVG 1.1//EN"
 "http://www.w3.org/Graphics/SVG/1.1/DTD/svg11.dtd">
<!-- Generated by graphviz version 16.1.0 (20260904.0139)
 -->
<!-- Title: Easy_Copier.Views.GameDetailsFlyout Pages: 1 -->
<svg width="356pt" height="132pt"
 viewBox="0.00 0.00 356.00 132.00" xmlns="http://www.w3.org/2000/svg" xmlns:xlink="http://www.w3.org/1999/xlink">
<g id="graph0" class="graph" transform="scale(1 1) rotate(0) translate(4 128.44)">
<title>Easy_Copier.Views.GameDetailsFlyout</title>
<!-- Node1 -->
<g id="Node000001" class="node">
<title>Node1</title>
<g id="a_Node000001"><a xlink:title=" ">
<polygon fill="#999999" stroke="#666666" points="347.75,-120 185.5,-120 185.5,-88 347.75,-88 347.75,-120"/>
<text xml:space="preserve" text-anchor="start" x="193.5" y="-106.5" font-family="Helvetica,sans-Serif" font-size="10.00">Easy_Copier.Views.GameDetails</text>
<text xml:space="preserve" text-anchor="middle" x="266.62" y="-94.5" font-family="Helvetica,sans-Serif" font-size="10.00">Flyout</text>
</a>
</g>
</g>
<!-- Node2 -->
<g id="Node000002" class="node">
<title>Node2</title>
<g id="a_Node000002"><a xlink:title=" ">
<polygon fill="white" stroke="#666666" points="147.62,-120 1.88,-120 1.88,-88 147.62,-88 147.62,-120"/>
<text xml:space="preserve" text-anchor="start" x="9.88" y="-106.5" font-family="Helvetica,sans-Serif" font-size="10.00">global::MicrosoftUI</text>
<text xml:space="preserve" text-anchor="middle" x="74.75" y="-94.5" font-family="Helvetica,sans-Serif" font-size="10.00">::Xaml::Controls::UserControl</text>
</a>
</g>
</g>
<!-- Node2&#45;&gt;Node1 -->
<g id="edge1_Node000001_Node000002" class="edge">
<title>Node2&#45;&gt;Node1</title>
<g id="a_edge1_Node000001_Node000002"><a xlink:title=" ">
<path fill="none" stroke="#63b8ff" d="M123.84,-86.12C156.27,-82.55 198.44,-83.01 228.33,-87.52"/>
<polygon fill="#63b8ff" stroke="#63b8ff" points="123.78,-82.6 114.31,-87.36 124.68,-89.54 123.78,-82.6"/>
</a>
</g>
</g>
<!-- Node2&#45;&gt;Node1 -->
<g id="edge3_Node000001_Node000002" class="edge">
<title>Node2&#45;&gt;Node1</title>
<g id="a_edge3_Node000001_Node000002"><a xlink:title=" ">
<path fill="none" stroke="#63b8ff" d="M159.31,-97.29C167.93,-97.23 176.68,-97.24 185.26,-97.32"/>
<polygon fill="#63b8ff" stroke="#63b8ff" points="159.55,-93.79 149.59,-97.41 159.63,-100.79 159.55,-93.79"/>
</a>
</g>
</g>
<!-- Node2&#45;&gt;Node1 -->
<g id="edge4_Node000001_Node000002" class="edge">
<title>Node2&#45;&gt;Node1</title>
<g id="a_edge4_Node000001_Node000002"><a xlink:title=" ">
<path fill="none" stroke="#63b8ff" d="M159.31,-110.71C167.93,-110.77 176.68,-110.76 185.26,-110.68"/>
<polygon fill="#63b8ff" stroke="#63b8ff" points="159.63,-107.21 149.59,-110.59 159.55,-114.21 159.63,-107.21"/>
</a>
</g>
</g>
<!-- Node2&#45;&gt;Node1 -->
<g id="edge6_Node000001_Node000002" class="edge">
<title>Node2&#45;&gt;Node1</title>
<g id="a_edge6_Node000001_Node000002"><a xlink:title=" ">
<path fill="none" stroke="#63b8ff" d="M123.84,-121.88C156.27,-125.45 198.44,-124.99 228.33,-120.48"/>
<polygon fill="#63b8ff" stroke="#63b8ff" points="124.68,-118.46 114.31,-120.64 123.78,-125.4 124.68,-118.46"/>
</a>
</g>
</g>
<!-- Node3 -->
<g id="Node000003" class="node">
<title>Node3</title>
<g id="a_Node000003"><a xlink:title=" ">
<polygon fill="white" stroke="#666666" points="149.5,-70 0,-70 0,-38 149.5,-38 149.5,-70"/>
<text xml:space="preserve" text-anchor="start" x="8" y="-56.5" font-family="Helvetica,sans-Serif" font-size="10.00">global.MicrosoftUI.Xaml.</text>
<text xml:space="preserve" text-anchor="middle" x="74.75" y="-44.5" font-family="Helvetica,sans-Serif" font-size="10.00">Markup.IComponentConnector</text>
</a>
</g>
</g>
<!-- Node3&#45;&gt;Node1 -->
<g id="edge2_Node000001_Node000003" class="edge">
<title>Node3&#45;&gt;Node1</title>
<g id="a_edge2_Node000001_Node000003"><a xlink:title=" ">
<path fill="none" stroke="#63b8ff" d="M161.09,-69.75C183.17,-75.43 205.96,-81.78 224.6,-87.53"/>
<polygon fill="#63b8ff" stroke="#63b8ff" points="162,-66.37 151.44,-67.31 160.28,-73.16 162,-66.37"/>
</a>
</g>
</g>
<!-- Node3&#45;&gt;Node1 -->
<g id="edge5_Node000001_Node000003" class="edge">
<title>Node3&#45;&gt;Node1</title>
<g id="a_edge5_Node000001_Node000003"><a xlink:title=" ">
<path fill="none" stroke="#63b8ff" d="M127.47,-73.71C145.25,-78.97 165.6,-84.53 185.11,-89.48"/>
<polygon fill="#63b8ff" stroke="#63b8ff" points="128.52,-70.36 117.93,-70.82 126.49,-77.07 128.52,-70.36"/>
</a>
</g>
</g>
<!-- Node4 -->
<g id="Node000004" class="node">
<title>Node4</title>
<g id="a_Node000004"><a xlink:title=" ">
<polygon fill="white" stroke="#666666" points="109,-20 40.5,-20 40.5,0 109,0 109,-20"/>
<text xml:space="preserve" text-anchor="middle" x="74.75" y="-6.5" font-family="Helvetica,sans-Serif" font-size="10.00">UserControl</text>
</a>
</g>
</g>
<!-- Node4&#45;&gt;Node1 -->
<g id="edge7_Node000001_Node000004" class="edge">
<title>Node4&#45;&gt;Node1</title>
<g id="a_edge7_Node000001_Node000004"><a xlink:title=" ">
<path fill="none" stroke="#63b8ff" d="M120.1,-18.96C129.98,-21.63 140.26,-24.95 149.5,-29 185.33,-44.69 222.61,-70.81 244.97,-87.71"/>
<polygon fill="#63b8ff" stroke="#63b8ff" points="121.2,-15.63 110.65,-16.59 119.5,-22.42 121.2,-15.63"/>
</a>
</g>
</g>
</g>
</svg>
