<?xml version="1.0" encoding="UTF-8" standalone="no"?>
<!DOCTYPE svg PUBLIC "-//W3C//DTD SVG 1.1//EN"
 "http://www.w3.org/Graphics/SVG/1.1/DTD/svg11.dtd">
<!-- Generated by graphviz version 16.1.0 (20260904.0139)
 -->
<!-- Title: Easy_Copier.Views.AboutWindow.AboutWindow_obj1_Bindings.AboutWindow_obj1_BindingsTracking.UpdateChildListeners_ViewModel Pages: 1 -->
<!--zoomable 215 -->

<svg id="main" version="1.1" xmlns="http://www.w3.org/2000/svg" xmlns:xlink="http://www.w3.org/1999/xlink" xml:space="preserve">

<style type="text/css"><![CDATA[
.node, .edge {opacity: 0.7;}
.node.selected, .edge.selected {opacity: 1;}
.edge:hover path { stroke: red; }
.edge:hover polygon { stroke: red; fill: red; }
]]></style>

<defs>
  <circle id="rim" cx="0" cy="0" r="7"/>
  <circle id="rim2" cx="0" cy="0" r="3.5"/>
  <g id="zoomPlus">
    <use xlink:href="#rim" fill="#404040"><set attributeName="fill" to="#808080" begin="zoomplus.mouseover" end="zoomplus.mouseout"/></use>
    <path d="M-4,0h8M0,-4v8" fill="none" stroke="white" stroke-width="1.5" pointer-events="none"/>
  </g>
  <g id="zoomMin">
    <use xlink:href="#rim" fill="#404040"><set attributeName="fill" to="#808080" begin="zoomminus.mouseover" end="zoomminus.mouseout"/></use>
    <path d="M-4,0h8" fill="none" stroke="white" stroke-width="1.5" pointer-events="none"/>
  </g>
  <g id="arrowUp" transform="translate(30 24)">
    <use xlink:href="#rim"/>
    <path pointer-events="none" fill="none" stroke="white" stroke-width="1.5" d="M0,-3.0v7 M-2.5,-0.5L0,-3.0L2.5,-0.5"/>
  </g>
  <g id="arrowRight" transform="rotate(90) translate(36 -43)">
    <use xlink:href="#rim"/>
    <path pointer-events="none" fill="none" stroke="white" stroke-width="1.5" d="M0,-3.0v7 M-2.5,-0.5L0,-3.0L2.5,-0.5"/>
  </g>
  <g id="arrowDown" transform="rotate(180) translate(-30 -48)">
    <use xlink:href="#rim"/>
    <path pointer-events="none" fill="none" stroke="white" stroke-width="1.5" d="M0,-3.0v7 M-2.5,-0.5L0,-3.0L2.5,-0.5"/>
  </g>
  <g id="arrowLeft" transform="rotate(270) translate(-36 17)">
    <use xlink:href="#rim"/>
    <path pointer-events="none" fill="none" stroke="white" stroke-width="1.5" d="M0,-3.0v7 M-2.5,-0.5L0,-3.0L2.5,-0.5"/>
  </g>
  <g id="resetDef">
    <use xlink:href="#rim2" fill="#404040"><set attributeName="fill" to="#808080" begin="reset.mouseover" end="reset.mouseout"/></use>
  </g>
</defs>
<script type="application/ecmascript" xlink:href="svg.min.js"/>
<svg id="graph" class="graph" data-view-width="1678" data-view-height="215" data-section-id="dynsection-21">
<g id="viewport">
<title>Easy_Copier.Views.AboutWindow.AboutWindow_obj1_Bindings.AboutWindow_obj1_BindingsTracking.UpdateChildListeners_ViewModel</title>
<!-- Node1 -->
<g id="Node000001" class="node">
<title>Node1</title>
<g id="a_Node000001"><a xlink:title=" ">
<polygon fill="#999999" stroke="#666666" points="1669.75,-125 1448.25,-125 1448.25,-69 1669.75,-69 1669.75,-125"/>
<text xml:space="preserve" text-anchor="start" x="1456.25" y="-111.5" font-family="Helvetica,sans-Serif" font-size="10.00">Easy_Copier.Views.AboutWindow.</text>
<text xml:space="preserve" text-anchor="start" x="1456.25" y="-99.5" font-family="Helvetica,sans-Serif" font-size="10.00">AboutWindow_obj1_Bindings.AboutWindow</text>
<text xml:space="preserve" text-anchor="start" x="1456.25" y="-87.5" font-family="Helvetica,sans-Serif" font-size="10.00">_obj1_BindingsTracking.UpdateChildListeners_</text>
<text xml:space="preserve" text-anchor="middle" x="1559" y="-75.5" font-family="Helvetica,sans-Serif" font-size="10.00">ViewModel</text>
</a>
</g>
</g>
<!-- Node2 -->
<g id="Node000002" class="node">
<title>Node2</title>
<g id="a_Node000002"><a xlink:href="class_easy___copier_1_1_views_1_1_about_window_1_1_about_window__obj1___bindings_1_1_about_window__obj1___bindings_tracking.html#a179f12917ff85490d10c8c3cc8ee1729" target="_top" xlink:title=" ">
<polygon fill="white" stroke="#666666" points="1412.25,-119 1202.75,-119 1202.75,-75 1412.25,-75 1412.25,-119"/>
<text xml:space="preserve" text-anchor="start" x="1210.75" y="-105.5" font-family="Helvetica,sans-Serif" font-size="10.00">Easy_Copier.Views.AboutWindow.</text>
<text xml:space="preserve" text-anchor="start" x="1210.75" y="-93.5" font-family="Helvetica,sans-Serif" font-size="10.00">AboutWindow_obj1_Bindings.AboutWindow</text>
<text xml:space="preserve" text-anchor="middle" x="1307.5" y="-81.5" font-family="Helvetica,sans-Serif" font-size="10.00">_obj1_BindingsTracking.ReleaseAllListeners</text>
</a>
</g>
</g>
<!-- Node1&#45;&gt;Node2 -->
<g id="edge1_Node000001_Node000002" class="edge">
<title>Node1&#45;&gt;Node2</title>
<g id="a_edge1_Node000001_Node000002"><a xlink:title=" ">
<path fill="none" stroke="#63b8ff" d="M1436.51,-97C1428.48,-97 1420.43,-97 1412.49,-97"/>
<polygon fill="#63b8ff" stroke="#63b8ff" points="1436.33,-100.5 1446.33,-97 1436.33,-93.5 1436.33,-100.5"/>
</a>
</g>
</g>
<!-- Node8 -->
<g id="Node000008" class="node">
<title>Node8</title>
<g id="a_Node000008"><a xlink:href="class_easy___copier_1_1_views_1_1_about_window_1_1_about_window__obj1___bindings.html#a630a13338fc059c837974435954bf835" target="_top" xlink:title=" ">
<polygon fill="white" stroke="#666666" points="1396.12,-197 1218.88,-197 1218.88,-153 1396.12,-153 1396.12,-197"/>
<text xml:space="preserve" text-anchor="start" x="1226.88" y="-183.5" font-family="Helvetica,sans-Serif" font-size="10.00">Easy_Copier.Views.AboutWindow.</text>
<text xml:space="preserve" text-anchor="start" x="1226.88" y="-171.5" font-family="Helvetica,sans-Serif" font-size="10.00">AboutWindow_obj1_Bindings.Update</text>
<text xml:space="preserve" text-anchor="middle" x="1307.5" y="-159.5" font-family="Helvetica,sans-Serif" font-size="10.00">_ViewModel</text>
</a>
</g>
</g>
<!-- Node1&#45;&gt;Node8 -->
<g id="edge8_Node000001_Node000008" class="edge">
<title>Node1&#45;&gt;Node8</title>
<g id="a_edge8_Node000001_Node000008"><a xlink:title=" ">
<path fill="none" stroke="#63b8ff" d="M1456.06,-128.87C1430.62,-136.82 1403.88,-145.18 1380.25,-152.57"/>
<polygon fill="#63b8ff" stroke="#63b8ff" points="1456.92,-132.27 1465.42,-125.94 1454.83,-125.59 1456.92,-132.27"/>
</a>
</g>
</g>
<!-- Node3 -->
<g id="Node000003" class="node">
<title>Node3</title>
<g id="a_Node000003"><a xlink:href="class_easy___copier_1_1_views_1_1_about_window_1_1_about_window__obj1___bindings.html#ac7881c1d6819d27027049eb7fd0b384e" target="_top" xlink:title=" ">
<polygon fill="white" stroke="#666666" points="630,-113 427.25,-113 427.25,-81 630,-81 630,-113"/>
<text xml:space="preserve" text-anchor="start" x="435.25" y="-99.5" font-family="Helvetica,sans-Serif" font-size="10.00">Easy_Copier.Views.AboutWindow.</text>
<text xml:space="preserve" text-anchor="middle" x="528.62" y="-87.5" font-family="Helvetica,sans-Serif" font-size="10.00">AboutWindow_obj1_Bindings.SetDataRoot</text>
</a>
</g>
</g>
<!-- Node2&#45;&gt;Node3 -->
<g id="edge2_Node000002_Node000003" class="edge">
<title>Node2&#45;&gt;Node3</title>
<g id="a_edge2_Node000002_Node000003"><a xlink:title=" ">
<path fill="none" stroke="#63b8ff" d="M1191.34,-97C1039.42,-97 774.46,-97 630.21,-97"/>
<polygon fill="#63b8ff" stroke="#63b8ff" points="1191.02,-100.5 1201.02,-97 1191.02,-93.5 1191.02,-100.5"/>
</a>
</g>
</g>
<!-- Node5 -->
<g id="Node000005" class="node">
<title>Node5</title>
<g id="a_Node000005"><a xlink:href="class_easy___copier_1_1_views_1_1_about_window_1_1_about_window__obj1___bindings.html#a09a0b73c6e27acf6b641171f5c69fd52" target="_top" xlink:title=" ">
<polygon fill="white" stroke="#666666" points="1161.88,-157 958.38,-157 958.38,-125 1161.88,-125 1161.88,-157"/>
<text xml:space="preserve" text-anchor="start" x="966.38" y="-143.5" font-family="Helvetica,sans-Serif" font-size="10.00">Easy_Copier.Views.AboutWindow.</text>
<text xml:space="preserve" text-anchor="middle" x="1060.12" y="-131.5" font-family="Helvetica,sans-Serif" font-size="10.00">AboutWindow_obj1_Bindings.StopTracking</text>
</a>
</g>
</g>
<!-- Node2&#45;&gt;Node5 -->
<g id="edge4_Node000002_Node000005" class="edge">
<title>Node2&#45;&gt;Node5</title>
<g id="a_edge4_Node000002_Node000005"><a xlink:title=" ">
<path fill="none" stroke="#63b8ff" d="M1191.2,-117.68C1178.36,-119.98 1165.41,-122.3 1152.91,-124.54"/>
<polygon fill="#63b8ff" stroke="#63b8ff" points="1191.72,-121.14 1200.95,-115.93 1190.49,-114.25 1191.72,-121.14"/>
</a>
</g>
</g>
<!-- Node6 -->
<g id="Node000006" class="node">
<title>Node6</title>
<g id="a_Node000006"><a xlink:href="class_easy___copier_1_1_views_1_1_about_window_1_1_about_window__obj1___bindings_1_1_about_window__obj1___bindings_tracking.html#a2114f7c77c69acc36c86902e019b5f5c" target="_top" xlink:title=" ">
<polygon fill="white" stroke="#666666" points="1166.75,-69 953.5,-69 953.5,-25 1166.75,-25 1166.75,-69"/>
<text xml:space="preserve" text-anchor="start" x="961.5" y="-55.5" font-family="Helvetica,sans-Serif" font-size="10.00">Easy_Copier.Views.AboutWindow.</text>
<text xml:space="preserve" text-anchor="start" x="961.5" y="-43.5" font-family="Helvetica,sans-Serif" font-size="10.00">AboutWindow_obj1_Bindings.AboutWindow</text>
<text xml:space="preserve" text-anchor="middle" x="1060.12" y="-31.5" font-family="Helvetica,sans-Serif" font-size="10.00">_obj1_BindingsTracking.TryGetBindingObject</text>
</a>
</g>
</g>
<!-- Node2&#45;&gt;Node6 -->
<g id="edge5_Node000002_Node000006" class="edge">
<title>Node2&#45;&gt;Node6</title>
<g id="a_edge5_Node000002_Node000006"><a xlink:title=" ">
<path fill="none" stroke="#63b8ff" d="M1191.36,-73.54C1183.21,-71.88 1175.01,-70.21 1166.92,-68.56"/>
<polygon fill="#63b8ff" stroke="#63b8ff" points="1190.46,-76.93 1200.96,-75.49 1191.86,-70.07 1190.46,-76.93"/>
</a>
</g>
</g>
<!-- Node4 -->
<g id="Node000004" class="node">
<title>Node4</title>
<g id="a_Node000004"><a xlink:href="class_easy___copier_1_1_views_1_1_about_window.html#a2bb52cc2bea33e6422f528a990fd18a2" target="_top" xlink:title="GetBindingConnector(int connectionId, object target).">
<polygon fill="white" stroke="#666666" points="168.25,-135 0,-135 0,-103 168.25,-103 168.25,-135"/>
<text xml:space="preserve" text-anchor="start" x="8" y="-121.5" font-family="Helvetica,sans-Serif" font-size="10.00">Easy_Copier.Views.AboutWindow.</text>
<text xml:space="preserve" text-anchor="middle" x="84.12" y="-109.5" font-family="Helvetica,sans-Serif" font-size="10.00">GetBindingConnector</text>
</a>
</g>
</g>
<!-- Node3&#45;&gt;Node4 -->
<g id="edge3_Node000003_Node000004" class="edge">
<title>Node3&#45;&gt;Node4</title>
<g id="a_edge3_Node000003_Node000004"><a xlink:title=" ">
<path fill="none" stroke="#63b8ff" d="M415.78,-102.56C338.95,-106.38 238.61,-111.37 168.7,-114.84"/>
<polygon fill="#63b8ff" stroke="#63b8ff" points="415.61,-106.07 425.43,-102.08 415.27,-99.08 415.61,-106.07"/>
</a>
</g>
</g>
<!-- Node7 -->
<g id="Node000007" class="node">
<title>Node7</title>
<g id="a_Node000007"><a xlink:href="class_easy___copier_1_1_views_1_1_about_window_1_1_about_window__obj1___bindings_1_1_about_window__obj1___bindings_tracking.html#a56e17f4459780be29d64513d9b28785f" target="_top" xlink:title=" ">
<polygon fill="white" stroke="#666666" points="917.5,-44 666,-44 666,0 917.5,0 917.5,-44"/>
<text xml:space="preserve" text-anchor="start" x="674" y="-30.5" font-family="Helvetica,sans-Serif" font-size="10.00">Easy_Copier.Views.AboutWindow.</text>
<text xml:space="preserve" text-anchor="start" x="674" y="-18.5" font-family="Helvetica,sans-Serif" font-size="10.00">AboutWindow_obj1_Bindings.AboutWindow</text>
<text xml:space="preserve" text-anchor="middle" x="791.75" y="-6.5" font-family="Helvetica,sans-Serif" font-size="10.00">_obj1_BindingsTracking.PropertyChanged_ViewModel</text>
</a>
</g>
</g>
<!-- Node6&#45;&gt;Node7 -->
<g id="edge6_Node000006_Node000007" class="edge">
<title>Node6&#45;&gt;Node7</title>
<g id="a_edge6_Node000006_Node000007"><a xlink:title=" ">
<path fill="none" stroke="#63b8ff" d="M941.85,-35.99C933.86,-35.24 925.8,-34.49 917.77,-33.73"/>
<polygon fill="#63b8ff" stroke="#63b8ff" points="941.29,-39.46 951.57,-36.91 941.95,-32.49 941.29,-39.46"/>
</a>
</g>
</g>
<!-- Node7&#45;&gt;Node1 -->
<g id="edge7_Node000007_Node000001" class="edge">
<title>Node7&#45;&gt;Node1</title>
<g id="a_edge7_Node000007_Node000001"><a xlink:title=" ">
<path fill="none" stroke="#63b8ff" d="M929.09,-16.56C937.35,-16.34 945.53,-16.15 953.5,-16 1048.26,-14.23 1072.45,-6.49 1166.75,-16 1277.54,-27.17 1303.24,-43.31 1412.25,-66 1423.77,-68.4 1435.81,-70.92 1447.8,-73.46"/>
<polygon fill="#63b8ff" stroke="#63b8ff" points="929.2,-13.05 919.3,-16.83 929.4,-20.05 929.2,-13.05"/>
</a>
</g>
</g>
<!-- Node9 -->
<g id="Node000009" class="node">
<title>Node9</title>
<g id="a_Node000009"><a xlink:href="class_easy___copier_1_1_views_1_1_about_window_1_1_about_window__obj1___bindings.html#add558c5b1ac9cb4ad3c1e8403afaa8ff" target="_top" xlink:title=" ">
<polygon fill="white" stroke="#666666" points="1151.38,-207 968.88,-207 968.88,-175 1151.38,-175 1151.38,-207"/>
<text xml:space="preserve" text-anchor="start" x="976.88" y="-193.5" font-family="Helvetica,sans-Serif" font-size="10.00">Easy_Copier.Views.AboutWindow.</text>
<text xml:space="preserve" text-anchor="middle" x="1060.12" y="-181.5" font-family="Helvetica,sans-Serif" font-size="10.00">AboutWindow_obj1_Bindings.Update_</text>
</a>
</g>
</g>
<!-- Node8&#45;&gt;Node9 -->
<g id="edge9_Node000008_Node000009" class="edge">
<title>Node8&#45;&gt;Node9</title>
<g id="a_edge9_Node000008_Node000009"><a xlink:title=" ">
<path fill="none" stroke="#63b8ff" d="M1207.28,-181.47C1188.91,-182.67 1169.81,-183.91 1151.71,-185.09"/>
<polygon fill="#63b8ff" stroke="#63b8ff" points="1207.35,-184.97 1217.1,-180.83 1206.89,-177.99 1207.35,-184.97"/>
</a>
</g>
</g>
<!-- Node10 -->
<g id="Node000010" class="node">
<title>Node10</title>
<g id="a_Node000010"><a xlink:href="class_easy___copier_1_1_views_1_1_about_window_1_1_about_window__obj1___bindings.html#a3cfe72e04cc738ca6b8949cb0db7a46a" target="_top" xlink:title=" ">
<polygon fill="white" stroke="#666666" points="880.38,-207 703.12,-207 703.12,-175 880.38,-175 880.38,-207"/>
<text xml:space="preserve" text-anchor="start" x="711.12" y="-193.5" font-family="Helvetica,sans-Serif" font-size="10.00">Easy_Copier.Views.AboutWindow.</text>
<text xml:space="preserve" text-anchor="middle" x="791.75" y="-181.5" font-family="Helvetica,sans-Serif" font-size="10.00">AboutWindow_obj1_Bindings.Update</text>
</a>
</g>
</g>
<!-- Node9&#45;&gt;Node10 -->
<g id="edge10_Node000009_Node000010" class="edge">
<title>Node9&#45;&gt;Node10</title>
<g id="a_edge10_Node000009_Node000010"><a xlink:title=" ">
<path fill="none" stroke="#63b8ff" d="M957.13,-191C931.97,-191 905.24,-191 880.8,-191"/>
<polygon fill="#63b8ff" stroke="#63b8ff" points="957.06,-194.5 967.06,-191 957.06,-187.5 957.06,-194.5"/>
</a>
</g>
</g>
<!-- Node11 -->
<g id="Node000011" class="node">
<title>Node11</title>
<g id="a_Node000011"><a xlink:href="class_easy___copier_1_1_views_1_1_about_window_1_1_about_window__obj1___bindings.html#a4a7ccdfc1d49ad7913615d40330500f3" target="_top" xlink:title=" ">
<polygon fill="white" stroke="#666666" points="619.5,-207 437.75,-207 437.75,-175 619.5,-175 619.5,-207"/>
<text xml:space="preserve" text-anchor="start" x="445.75" y="-193.5" font-family="Helvetica,sans-Serif" font-size="10.00">Easy_Copier.Views.AboutWindow.</text>
<text xml:space="preserve" text-anchor="middle" x="528.62" y="-181.5" font-family="Helvetica,sans-Serif" font-size="10.00">AboutWindow_obj1_Bindings.Initialize</text>
</a>
</g>
</g>
<!-- Node10&#45;&gt;Node11 -->
<g id="edge11_Node000010_Node000011" class="edge">
<title>Node10&#45;&gt;Node11</title>
<g id="a_edge11_Node000010_Node000011"><a xlink:title=" ">
<path fill="none" stroke="#63b8ff" d="M691.32,-191C667.87,-191 642.98,-191 619.96,-191"/>
<polygon fill="#63b8ff" stroke="#63b8ff" points="691.2,-194.5 701.2,-191 691.2,-187.5 691.2,-194.5"/>
</a>
</g>
</g>
<!-- Node12 -->
<g id="Node000012" class="node">
<title>Node12</title>
<g id="a_Node000012"><a xlink:href="class_easy___copier_1_1_views_1_1_about_window_1_1_about_window__obj1___bindings.html#a3828494ce59131c2959afa760069e83a" target="_top" xlink:title=" ">
<polygon fill="white" stroke="#666666" points="391.25,-157 204.25,-157 204.25,-125 391.25,-125 391.25,-157"/>
<text xml:space="preserve" text-anchor="start" x="212.25" y="-143.5" font-family="Helvetica,sans-Serif" font-size="10.00">Easy_Copier.Views.AboutWindow.</text>
<text xml:space="preserve" text-anchor="middle" x="297.75" y="-131.5" font-family="Helvetica,sans-Serif" font-size="10.00">AboutWindow_obj1_Bindings.Activated</text>
</a>
</g>
</g>
<!-- Node11&#45;&gt;Node12 -->
<g id="edge12_Node000011_Node000012" class="edge">
<title>Node11&#45;&gt;Node12</title>
<g id="a_edge12_Node000011_Node000012"><a xlink:title=" ">
<path fill="none" stroke="#63b8ff" d="M441.3,-172.14C419.18,-167.31 395.57,-162.15 374.05,-157.45"/>
<polygon fill="#63b8ff" stroke="#63b8ff" points="440.37,-175.52 450.89,-174.24 441.86,-168.68 440.37,-175.52"/>
</a>
</g>
</g>
<!-- Node13 -->
<g id="Node000013" class="node">
<title>Node13</title>
<g id="a_Node000013"><a xlink:href="class_easy___copier_1_1_views_1_1_about_window_1_1_about_window__obj1___bindings.html#a26ce6816462639df56cc1e286d9377c6" target="_top" xlink:title=" ">
<polygon fill="white" stroke="#666666" points="387.5,-207 208,-207 208,-175 387.5,-175 387.5,-207"/>
<text xml:space="preserve" text-anchor="start" x="216" y="-193.5" font-family="Helvetica,sans-Serif" font-size="10.00">Easy_Copier.Views.AboutWindow.</text>
<text xml:space="preserve" text-anchor="middle" x="297.75" y="-181.5" font-family="Helvetica,sans-Serif" font-size="10.00">AboutWindow_obj1_Bindings.Loading</text>
</a>
</g>
</g>
<!-- Node11&#45;&gt;Node13 -->
<g id="edge14_Node000011_Node000013" class="edge">
<title>Node11&#45;&gt;Node13</title>
<g id="a_edge14_Node000011_Node000013"><a xlink:title=" ">
<path fill="none" stroke="#63b8ff" d="M426.27,-191C413.41,-191 400.32,-191 387.67,-191"/>
<polygon fill="#63b8ff" stroke="#63b8ff" points="425.98,-194.5 435.98,-191 425.98,-187.5 425.98,-194.5"/>
</a>
</g>
</g>
<!-- Node12&#45;&gt;Node4 -->
<g id="edge13_Node000012_Node000004" class="edge">
<title>Node12&#45;&gt;Node4</title>
<g id="a_edge13_Node000012_Node000004"><a xlink:title=" ">
<path fill="none" stroke="#63b8ff" d="M192.57,-130.17C184.51,-129.33 176.45,-128.49 168.55,-127.67"/>
<polygon fill="#63b8ff" stroke="#63b8ff" points="192.11,-133.64 202.42,-131.19 192.84,-126.68 192.11,-133.64"/>
</a>
</g>
</g>
</g>
</svg>

<g id="navigator" transform="translate(0 0)" fill="#404254">
  <rect fill="#f2f5e9" fill-opacity="0.5" stroke="#606060" stroke-width=".5" x="0" y="0" width="60" height="60"/>
  <use id="zoomplus" xlink:href="#zoomPlus" x="17" y="9" data-zoom="in"/>
  <use id="zoomminus" xlink:href="#zoomMin" x="42" y="9" data-zoom="out"/>
  <use id="reset" xlink:href="#resetDef" x="30" y="36" data-reset="true"/>
  <use id="arrowup" xlink:href="#arrowUp" x="0" y="0" data-pan-x="0" data-pan-y="-1"/>
  <use id="arrowright" xlink:href="#arrowRight" x="0" y="0" data-pan-x="1" data-pan-y="0"/>
  <use id="arrowdown" xlink:href="#arrowDown" x="0" y="0" data-pan-x="0" data-pan-y="1"/>
  <use id="arrowleft" xlink:href="#arrowLeft" x="0" y="0" data-pan-x="-1" data-pan-y="0"/>
</g>
<svg viewBox="0 0 15 15" width="100%" height="30px" preserveAspectRatio="xMaxYMin meet">
 <g id="arrow_out" transform="scale(0.3 0.3)">
  <a xlink:href="class_easy___copier_1_1_views_1_1_about_window_1_1_about_window__obj1___bindings_1_1_about_window__obj1___bindings_tracking_ad003d09ae192ec6d31627d5519b2edf3_icgraph_org.svg" target="_base">
   <rect id="button" ry="5" rx="5" y="6" x="6" height="38" width="38"
        fill="#f2f5e9" fill-opacity="0.5" stroke="#606060" stroke-width="1.0"/>
   <path id="arrow"
     d="M 11.500037,31.436501 C 11.940474,20.09759 22.043105,11.32322 32.158766,21.979434 L 37.068811,17.246167 C 37.068811,17.246167 37.088388,32 37.088388,32 L 22.160133,31.978069 C 22.160133,31.978069 26.997745,27.140456 26.997745,27.140456 C 18.528582,18.264221 13.291696,25.230495 11.500037,31.436501 z"
     style="fill:#404040;"/>
  </a>
 </g>
</svg>

<style type='text/css'>
<![CDATA[
[data-mouse-over-selected='false'] { opacity: 0.7; }
[data-mouse-over-selected='true']  { opacity: 1.0; }
]]>
</style>
</svg>
