<?xml version="1.0" encoding="UTF-8" standalone="no"?>
<!DOCTYPE svg PUBLIC "-//W3C//DTD SVG 1.1//EN"
 "http://www.w3.org/Graphics/SVG/1.1/DTD/svg11.dtd">
<!-- Generated by graphviz version 16.1.0 (20260904.0139)
 -->
<!-- Title: Easy_Copier.ViewModels.HistoryViewModel.ProcessLoadedRecords Pages: 1 -->
<!--zoomable 90 -->

<svg id="main" version="1.1" xmlns="http://www.w3.org/2000/svg" xmlns:xlink="http://www.w3.org/1999/xlink" xml:space="preserve">

<style type="text/css"><![CDATA[
.node, .edge {opacity: 0.7;}
.node.selected, .edge.selected {opacity: 1;}
.edge:hover path { stroke: red; }
.edge:hover polygon { stroke: red; fill: red; }
]]></style>

<defs>
  <circle id="rim" cx="0" cy="0" r="7"/>
  <circle id="rim2" cx="0" cy="0" r="3.5"/>
  <g id="zoomPlus">
    <use xlink:href="#rim" fill="#404040"><set attributeName="fill" to="#808080" begin="zoomplus.mouseover" end="zoomplus.mouseout"/></use>
    <path d="M-4,0h8M0,-4v8" fill="none" stroke="white" stroke-width="1.5" pointer-events="none"/>
  </g>
  <g id="zoomMin">
    <use xlink:href="#rim" fill="#404040"><set attributeName="fill" to="#808080" begin="zoomminus.mouseover" end="zoomminus.mouseout"/></use>
    <path d="M-4,0h8" fill="none" stroke="white" stroke-width="1.5" pointer-events="none"/>
  </g>
  <g id="arrowUp" transform="translate(30 24)">
    <use xlink:href="#rim"/>
    <path pointer-events="none" fill="none" stroke="white" stroke-width="1.5" d="M0,-3.0v7 M-2.5,-0.5L0,-3.0L2.5,-0.5"/>
  </g>
  <g id="arrowRight" transform="rotate(90) translate(36 -43)">
    <use xlink:href="#rim"/>
    <path pointer-events="none" fill="none" stroke="white" stroke-width="1.5" d="M0,-3.0v7 M-2.5,-0.5L0,-3.0L2.5,-0.5"/>
  </g>
  <g id="arrowDown" transform="rotate(180) translate(-30 -48)">
    <use xlink:href="#rim"/>
    <path pointer-events="none" fill="none" stroke="white" stroke-width="1.5" d="M0,-3.0v7 M-2.5,-0.5L0,-3.0L2.5,-0.5"/>
  </g>
  <g id="arrowLeft" transform="rotate(270) translate(-36 17)">
    <use xlink:href="#rim"/>
    <path pointer-events="none" fill="none" stroke="white" stroke-width="1.5" d="M0,-3.0v7 M-2.5,-0.5L0,-3.0L2.5,-0.5"/>
  </g>
  <g id="resetDef">
    <use xlink:href="#rim2" fill="#404040"><set attributeName="fill" to="#808080" begin="reset.mouseover" end="reset.mouseout"/></use>
  </g>
</defs>
<script type="application/ecmascript" xlink:href="svg.min.js"/>
<svg id="graph" class="graph" data-view-width="627" data-view-height="90" data-section-id="dynsection-13">
<g id="viewport">
<title>Easy_Copier.ViewModels.HistoryViewModel.ProcessLoadedRecords</title>
<!-- Node1 -->
<g id="Node000001" class="node">
<title>Node1</title>
<g id="a_Node000001"><a xlink:title=" ">
<polygon fill="#999999" stroke="#666666" points="618.75,-57 447.5,-57 447.5,-25 618.75,-25 618.75,-57"/>
<text xml:space="preserve" text-anchor="start" x="455.5" y="-43.5" font-family="Helvetica,sans-Serif" font-size="10.00">Easy_Copier.ViewModels.History</text>
<text xml:space="preserve" text-anchor="middle" x="533.12" y="-31.5" font-family="Helvetica,sans-Serif" font-size="10.00">ViewModel.ProcessLoadedRecords</text>
</a>
</g>
</g>
<!-- Node2 -->
<g id="Node000002" class="node">
<title>Node2</title>
<g id="a_Node000002"><a xlink:href="class_easy___copier_1_1_view_models_1_1_history_view_model.html#a1f296fdc4d87cdf38e600b3cb5daaf36" target="_top" xlink:title=" ">
<polygon fill="white" stroke="#666666" points="411.5,-82 220,-82 220,-50 411.5,-50 411.5,-82"/>
<text xml:space="preserve" text-anchor="start" x="228" y="-68.5" font-family="Helvetica,sans-Serif" font-size="10.00">Easy_Copier.ViewModels.History</text>
<text xml:space="preserve" text-anchor="middle" x="315.75" y="-56.5" font-family="Helvetica,sans-Serif" font-size="10.00">ViewModel.LoadRecordsByMonthAsync</text>
</a>
</g>
</g>
<!-- Node1&#45;&gt;Node2 -->
<g id="edge1_Node000001_Node000002" class="edge">
<title>Node1&#45;&gt;Node2</title>
<g id="a_edge1_Node000001_Node000002"><a xlink:title=" ">
<path fill="none" stroke="#63b8ff" d="M435.84,-52.18C427.89,-53.1 419.85,-54.03 411.91,-54.95"/>
<polygon fill="#63b8ff" stroke="#63b8ff" points="435.97,-55.68 445.5,-51.06 435.16,-48.73 435.97,-55.68"/>
</a>
</g>
</g>
<!-- Node4 -->
<g id="Node000004" class="node">
<title>Node4</title>
<g id="a_Node000004"><a xlink:href="class_easy___copier_1_1_view_models_1_1_history_view_model.html#a7bc5319f97e5d0799de3ef71f9086784" target="_top" xlink:title=" ">
<polygon fill="white" stroke="#666666" points="410.38,-32 221.12,-32 221.12,0 410.38,0 410.38,-32"/>
<text xml:space="preserve" text-anchor="start" x="229.12" y="-18.5" font-family="Helvetica,sans-Serif" font-size="10.00">Easy_Copier.ViewModels.History</text>
<text xml:space="preserve" text-anchor="middle" x="315.75" y="-6.5" font-family="Helvetica,sans-Serif" font-size="10.00">ViewModel.LoadRecordsByWeekAsync</text>
</a>
</g>
</g>
<!-- Node1&#45;&gt;Node4 -->
<g id="edge3_Node000001_Node000004" class="edge">
<title>Node1&#45;&gt;Node4</title>
<g id="a_edge3_Node000001_Node000004"><a xlink:title=" ">
<path fill="none" stroke="#63b8ff" d="M435.78,-29.82C427.49,-28.85 419.11,-27.88 410.84,-26.92"/>
<polygon fill="#63b8ff" stroke="#63b8ff" points="435.16,-33.27 445.5,-30.94 435.97,-26.32 435.16,-33.27"/>
</a>
</g>
</g>
<!-- Node3 -->
<g id="Node000003" class="node">
<title>Node3</title>
<g id="a_Node000003"><a xlink:href="class_easy___copier_1_1_view_models_1_1_history_view_model.html#a49528f55b23d42cb2aa93df4f3813702" target="_top" xlink:title=" ">
<polygon fill="white" stroke="#666666" points="184,-82 0,-82 0,-50 184,-50 184,-82"/>
<text xml:space="preserve" text-anchor="start" x="8" y="-68.5" font-family="Helvetica,sans-Serif" font-size="10.00">Easy_Copier.ViewModels.History</text>
<text xml:space="preserve" text-anchor="middle" x="92" y="-56.5" font-family="Helvetica,sans-Serif" font-size="10.00">ViewModel.OnSelectedMonthChanged</text>
</a>
</g>
</g>
<!-- Node2&#45;&gt;Node3 -->
<g id="edge2_Node000002_Node000003" class="edge">
<title>Node2&#45;&gt;Node3</title>
<g id="a_edge2_Node000002_Node000003"><a xlink:title=" ">
<path fill="none" stroke="#63b8ff" d="M208.39,-66C200.33,-66 192.24,-66 184.29,-66"/>
<polygon fill="#63b8ff" stroke="#63b8ff" points="208.23,-69.5 218.23,-66 208.23,-62.5 208.23,-69.5"/>
</a>
</g>
</g>
<!-- Node5 -->
<g id="Node000005" class="node">
<title>Node5</title>
<g id="a_Node000005"><a xlink:href="class_easy___copier_1_1_view_models_1_1_history_view_model.html#a80e21f10de84c862aea543e30ef75b2e" target="_top" xlink:title=" ">
<polygon fill="white" stroke="#666666" points="182.88,-32 1.12,-32 1.12,0 182.88,0 182.88,-32"/>
<text xml:space="preserve" text-anchor="start" x="9.12" y="-18.5" font-family="Helvetica,sans-Serif" font-size="10.00">Easy_Copier.ViewModels.History</text>
<text xml:space="preserve" text-anchor="middle" x="92" y="-6.5" font-family="Helvetica,sans-Serif" font-size="10.00">ViewModel.OnSelectedWeekChanged</text>
</a>
</g>
</g>
<!-- Node4&#45;&gt;Node5 -->
<g id="edge4_Node000004_Node000005" class="edge">
<title>Node4&#45;&gt;Node5</title>
<g id="a_edge4_Node000004_Node000005"><a xlink:title=" ">
<path fill="none" stroke="#63b8ff" d="M209.32,-16C200.62,-16 191.87,-16 183.3,-16"/>
<polygon fill="#63b8ff" stroke="#63b8ff" points="209.19,-19.5 219.19,-16 209.19,-12.5 209.19,-19.5"/>
</a>
</g>
</g>
</g>
</svg>

<g id="navigator" transform="translate(0 0)" fill="#404254">
  <rect fill="#f2f5e9" fill-opacity="0.5" stroke="#606060" stroke-width=".5" x="0" y="0" width="60" height="60"/>
  <use id="zoomplus" xlink:href="#zoomPlus" x="17" y="9" data-zoom="in"/>
  <use id="zoomminus" xlink:href="#zoomMin" x="42" y="9" data-zoom="out"/>
  <use id="reset" xlink:href="#resetDef" x="30" y="36" data-reset="true"/>
  <use id="arrowup" xlink:href="#arrowUp" x="0" y="0" data-pan-x="0" data-pan-y="-1"/>
  <use id="arrowright" xlink:href="#arrowRight" x="0" y="0" data-pan-x="1" data-pan-y="0"/>
  <use id="arrowdown" xlink:href="#arrowDown" x="0" y="0" data-pan-x="0" data-pan-y="1"/>
  <use id="arrowleft" xlink:href="#arrowLeft" x="0" y="0" data-pan-x="-1" data-pan-y="0"/>
</g>
<svg viewBox="0 0 15 15" width="100%" height="30px" preserveAspectRatio="xMaxYMin meet">
 <g id="arrow_out" transform="scale(0.3 0.3)">
  <a xlink:href="class_easy___copier_1_1_view_models_1_1_history_view_model_aa213ac871ec14e0897dc9d330434184c_icgraph_org.svg" target="_base">
   <rect id="button" ry="5" rx="5" y="6" x="6" height="38" width="38"
        fill="#f2f5e9" fill-opacity="0.5" stroke="#606060" stroke-width="1.0"/>
   <path id="arrow"
     d="M 11.500037,31.436501 C 11.940474,20.09759 22.043105,11.32322 32.158766,21.979434 L 37.068811,17.246167 C 37.068811,17.246167 37.088388,32 37.088388,32 L 22.160133,31.978069 C 22.160133,31.978069 26.997745,27.140456 26.997745,27.140456 C 18.528582,18.264221 13.291696,25.230495 11.500037,31.436501 z"
     style="fill:#404040;"/>
  </a>
 </g>
</svg>

<style type='text/css'>
<![CDATA[
[data-mouse-over-selected='false'] { opacity: 0.7; }
[data-mouse-over-selected='true']  { opacity: 1.0; }
]]>
</style>
</svg>
