<?xml version="1.0" encoding="UTF-8" standalone="no"?>
<!DOCTYPE svg PUBLIC "-//W3C//DTD SVG 1.1//EN"
 "http://www.w3.org/Graphics/SVG/1.1/DTD/svg11.dtd">
<!-- Generated by graphviz version 16.1.0 (20260904.0139)
 -->
<!-- Title: Easy_Copier.Views.HistoryWindow.HistoryWindow Pages: 1 -->
<svg width="1062pt" height="302pt"
 viewBox="0.00 0.00 1062.00 302.00" xmlns="http://www.w3.org/2000/svg" xmlns:xlink="http://www.w3.org/1999/xlink">
<g id="graph0" class="graph" transform="scale(1 1) rotate(0) translate(4 298)">
<title>Easy_Copier.Views.HistoryWindow.HistoryWindow</title>
<!-- Node1 -->
<g id="Node000001" class="node">
<title>Node1</title>
<g id="a_Node000001"><a xlink:title="Initializes a new instance of the HistoryWindow class.">
<polygon fill="#999999" stroke="#666666" points="136.75,-260 0,-260 0,-228 136.75,-228 136.75,-260"/>
<text xml:space="preserve" text-anchor="start" x="8" y="-246.5" font-family="Helvetica,sans-Serif" font-size="10.00">Easy_Copier.Views.History</text>
<text xml:space="preserve" text-anchor="middle" x="68.38" y="-234.5" font-family="Helvetica,sans-Serif" font-size="10.00">Window.HistoryWindow</text>
</a>
</g>
</g>
<!-- Node2 -->
<g id="Node000002" class="node">
<title>Node2</title>
<g id="a_Node000002"><a xlink:href="class_easy___copier_1_1_views_1_1_history_window.html#a3b87dcb9b8d701bbfbacb46b9c86618e" target="_top" xlink:title="InitializeComponent().">
<polygon fill="white" stroke="#666666" points="329.38,-288 189.62,-288 189.62,-256 329.38,-256 329.38,-288"/>
<text xml:space="preserve" text-anchor="start" x="197.62" y="-274.5" font-family="Helvetica,sans-Serif" font-size="10.00">Easy_Copier.Views.History</text>
<text xml:space="preserve" text-anchor="middle" x="259.5" y="-262.5" font-family="Helvetica,sans-Serif" font-size="10.00">Window.InitializeComponent</text>
</a>
</g>
</g>
<!-- Node1&#45;&gt;Node2 -->
<g id="edge1_Node000001_Node000002" class="edge">
<title>Node1&#45;&gt;Node2</title>
<g id="a_edge1_Node000001_Node000002"><a xlink:title=" ">
<path fill="none" stroke="#63b8ff" d="M137.12,-254.03C150.37,-255.99 164.38,-258.07 178,-260.08"/>
<polygon fill="#63b8ff" stroke="#63b8ff" points="177.42,-263.53 187.82,-261.54 178.44,-256.61 177.42,-263.53"/>
</a>
</g>
</g>
<!-- Node3 -->
<g id="Node000003" class="node">
<title>Node3</title>
<g id="a_Node000003"><a xlink:href="class_easy___copier_1_1_infrastructure_1_1_native_window_helper.html#a3d287dd8cb064cde0c403d6692cb4a67" target="_top" xlink:title="Centralized helper method to initialize a modal dialog window, setting data context,...">
<polygon fill="white" stroke="#666666" points="346.25,-238 172.75,-238 172.75,-194 346.25,-194 346.25,-238"/>
<text xml:space="preserve" text-anchor="start" x="180.75" y="-224.5" font-family="Helvetica,sans-Serif" font-size="10.00">Easy_Copier.Infrastructure.</text>
<text xml:space="preserve" text-anchor="start" x="180.75" y="-212.5" font-family="Helvetica,sans-Serif" font-size="10.00">NativeWindowHelper.InitializeModal</text>
<text xml:space="preserve" text-anchor="middle" x="259.5" y="-200.5" font-family="Helvetica,sans-Serif" font-size="10.00">Window</text>
</a>
</g>
</g>
<!-- Node1&#45;&gt;Node3 -->
<g id="edge2_Node000001_Node000003" class="edge">
<title>Node1&#45;&gt;Node3</title>
<g id="a_edge2_Node000001_Node000003"><a xlink:title=" ">
<path fill="none" stroke="#63b8ff" d="M137.12,-233.97C144.99,-232.81 153.13,-231.6 161.3,-230.39"/>
<polygon fill="#63b8ff" stroke="#63b8ff" points="161.55,-233.89 170.93,-228.97 160.52,-226.97 161.55,-233.89"/>
</a>
</g>
</g>
<!-- Node4 -->
<g id="Node000004" class="node">
<title>Node4</title>
<g id="a_Node000004"><a xlink:href="class_easy___copier_1_1_infrastructure_1_1_native_window_helper.html#aefed850ce6ac9058e32444fc6a9ecb70" target="_top" xlink:title="Initializes standard window parameters including window dimensions and default window icons.">
<polygon fill="white" stroke="#666666" points="571.5,-282 389,-282 389,-250 571.5,-250 571.5,-282"/>
<text xml:space="preserve" text-anchor="start" x="397" y="-268.5" font-family="Helvetica,sans-Serif" font-size="10.00">Easy_Copier.Infrastructure.</text>
<text xml:space="preserve" text-anchor="middle" x="480.25" y="-256.5" font-family="Helvetica,sans-Serif" font-size="10.00">NativeWindowHelper.InitializeWindow</text>
</a>
</g>
</g>
<!-- Node3&#45;&gt;Node4 -->
<g id="edge3_Node000003_Node000004" class="edge">
<title>Node3&#45;&gt;Node4</title>
<g id="a_edge3_Node000003_Node000004"><a xlink:title=" ">
<path fill="none" stroke="#63b8ff" d="M346.64,-235.69C362.96,-239.42 380.01,-243.32 396.23,-247.02"/>
<polygon fill="#63b8ff" stroke="#63b8ff" points="395.3,-250.4 405.83,-249.22 396.86,-243.58 395.3,-250.4"/>
</a>
</g>
</g>
<!-- Node5 -->
<g id="Node000005" class="node">
<title>Node5</title>
<g id="a_Node000005"><a xlink:href="class_easy___copier_1_1_infrastructure_1_1_native_window_helper.html#afda73520a4a05ae69313906202e7c369" target="_top" xlink:title="Re&#45;enables input interaction and restores foreground focus for an owner window after a modal window c...">
<polygon fill="white" stroke="#666666" points="578.25,-232 382.25,-232 382.25,-200 578.25,-200 578.25,-232"/>
<text xml:space="preserve" text-anchor="start" x="390.25" y="-218.5" font-family="Helvetica,sans-Serif" font-size="10.00">Easy_Copier.Infrastructure.</text>
<text xml:space="preserve" text-anchor="middle" x="480.25" y="-206.5" font-family="Helvetica,sans-Serif" font-size="10.00">NativeWindowHelper.RestoreOwnerInput</text>
</a>
</g>
</g>
<!-- Node3&#45;&gt;Node5 -->
<g id="edge4_Node000003_Node000005" class="edge">
<title>Node3&#45;&gt;Node5</title>
<g id="a_edge4_Node000003_Node000005"><a xlink:title=" ">
<path fill="none" stroke="#63b8ff" d="M346.64,-216C354.52,-216 362.58,-216 370.62,-216"/>
<polygon fill="#63b8ff" stroke="#63b8ff" points="370.46,-219.5 380.46,-216 370.46,-212.5 370.46,-219.5"/>
</a>
</g>
</g>
<!-- Node10 -->
<g id="Node000010" class="node">
<title>Node10</title>
<g id="a_Node000010"><a xlink:href="class_easy___copier_1_1_infrastructure_1_1_native_window_helper.html#a81a0067167ce836e7bd56820fb7a867f" target="_top" xlink:title="Configures and shows a child window modally with respect to an owner window.">
<polygon fill="white" stroke="#666666" points="567.38,-182 393.12,-182 393.12,-150 567.38,-150 567.38,-182"/>
<text xml:space="preserve" text-anchor="start" x="401.12" y="-168.5" font-family="Helvetica,sans-Serif" font-size="10.00">Easy_Copier.Infrastructure.</text>
<text xml:space="preserve" text-anchor="middle" x="480.25" y="-156.5" font-family="Helvetica,sans-Serif" font-size="10.00">NativeWindowHelper.ShowAsModal</text>
</a>
</g>
</g>
<!-- Node3&#45;&gt;Node10 -->
<g id="edge9_Node000003_Node000010" class="edge">
<title>Node3&#45;&gt;Node10</title>
<g id="a_edge9_Node000003_Node000010"><a xlink:title=" ">
<path fill="none" stroke="#63b8ff" d="M346.64,-196.31C362.96,-192.58 380.01,-188.68 396.23,-184.98"/>
<polygon fill="#63b8ff" stroke="#63b8ff" points="396.86,-188.42 405.83,-182.78 395.3,-181.6 396.86,-188.42"/>
</a>
</g>
</g>
<!-- Node6 -->
<g id="Node000006" class="node">
<title>Node6</title>
<g id="a_Node000006"><a xlink:href="class_easy___copier_1_1_infrastructure_1_1_native_window_helper.html#ac6f330703159fa50a1108ba3f4051bd7" target="_top" xlink:title="Enables or disables input interaction for the specified window handle.">
<polygon fill="white" stroke="#666666" points="812.5,-232 614.25,-232 614.25,-200 812.5,-200 812.5,-232"/>
<text xml:space="preserve" text-anchor="start" x="622.25" y="-218.5" font-family="Helvetica,sans-Serif" font-size="10.00">Easy_Copier.Infrastructure.</text>
<text xml:space="preserve" text-anchor="middle" x="713.38" y="-206.5" font-family="Helvetica,sans-Serif" font-size="10.00">NativeWindowHelper.EnableWindowInput</text>
</a>
</g>
</g>
<!-- Node5&#45;&gt;Node6 -->
<g id="edge5_Node000005_Node000006" class="edge">
<title>Node5&#45;&gt;Node6</title>
<g id="a_edge5_Node000005_Node000006"><a xlink:title=" ">
<path fill="none" stroke="#63b8ff" d="M578.6,-216C586.56,-216 594.65,-216 602.69,-216"/>
<polygon fill="#63b8ff" stroke="#63b8ff" points="602.52,-219.5 612.52,-216 602.52,-212.5 602.52,-219.5"/>
</a>
</g>
</g>
<!-- Node8 -->
<g id="Node000008" class="node">
<title>Node8</title>
<g id="a_Node000008"><a xlink:href="class_easy___copier_1_1_infrastructure_1_1_native_window_helper.html#a0866d3ff5ff5b806f9f86c5c9aaa412f" target="_top" xlink:title="Brings the specified window handle to the foreground.">
<polygon fill="white" stroke="#666666" points="800.88,-285 625.88,-285 625.88,-253 800.88,-253 800.88,-285"/>
<text xml:space="preserve" text-anchor="start" x="633.88" y="-271.5" font-family="Helvetica,sans-Serif" font-size="10.00">Easy_Copier.Infrastructure.</text>
<text xml:space="preserve" text-anchor="middle" x="713.38" y="-259.5" font-family="Helvetica,sans-Serif" font-size="10.00">NativeWindowHelper.SetForeground</text>
</a>
</g>
</g>
<!-- Node5&#45;&gt;Node8 -->
<g id="edge7_Node000005_Node000008" class="edge">
<title>Node5&#45;&gt;Node8</title>
<g id="a_edge7_Node000005_Node000008"><a xlink:title=" ">
<path fill="none" stroke="#63b8ff" d="M553.11,-232.48C577.35,-238.04 604.6,-244.29 629.62,-250.02"/>
<polygon fill="#63b8ff" stroke="#63b8ff" points="628.55,-253.37 639.08,-252.19 630.12,-246.55 628.55,-253.37"/>
</a>
</g>
</g>
<!-- Node7 -->
<g id="Node000007" class="node">
<title>Node7</title>
<g id="a_Node000007"><a xlink:href="class_easy___copier_1_1_infrastructure_1_1_native_window_helper.html#a46e4f01bcb389c5e85ff7f526ffecc75" target="_top" xlink:title=" ">
<polygon fill="white" stroke="#666666" points="1039.62,-232 863.12,-232 863.12,-200 1039.62,-200 1039.62,-232"/>
<text xml:space="preserve" text-anchor="start" x="871.12" y="-218.5" font-family="Helvetica,sans-Serif" font-size="10.00">Easy_Copier.Infrastructure.</text>
<text xml:space="preserve" text-anchor="middle" x="951.38" y="-206.5" font-family="Helvetica,sans-Serif" font-size="10.00">NativeWindowHelper.EnableWindow</text>
</a>
</g>
</g>
<!-- Node6&#45;&gt;Node7 -->
<g id="edge6_Node000006_Node000007" class="edge">
<title>Node6&#45;&gt;Node7</title>
<g id="a_edge6_Node000006_Node000007"><a xlink:title=" ">
<path fill="none" stroke="#63b8ff" d="M812.75,-216C825.57,-216 838.7,-216 851.52,-216"/>
<polygon fill="#63b8ff" stroke="#63b8ff" points="851.18,-219.5 861.18,-216 851.18,-212.5 851.18,-219.5"/>
</a>
</g>
</g>
<!-- Node9 -->
<g id="Node000009" class="node">
<title>Node9</title>
<g id="a_Node000009"><a xlink:href="class_easy___copier_1_1_infrastructure_1_1_native_window_helper.html#a8ddfd36499035568510b6cb9e4b88459" target="_top" xlink:title=" ">
<polygon fill="white" stroke="#666666" points="1038.88,-294 863.88,-294 863.88,-250 1038.88,-250 1038.88,-294"/>
<text xml:space="preserve" text-anchor="start" x="871.88" y="-280.5" font-family="Helvetica,sans-Serif" font-size="10.00">Easy_Copier.Infrastructure.</text>
<text xml:space="preserve" text-anchor="start" x="871.88" y="-268.5" font-family="Helvetica,sans-Serif" font-size="10.00">NativeWindowHelper.SetForeground</text>
<text xml:space="preserve" text-anchor="middle" x="951.38" y="-256.5" font-family="Helvetica,sans-Serif" font-size="10.00">Window</text>
</a>
</g>
</g>
<!-- Node8&#45;&gt;Node9 -->
<g id="edge8_Node000008_Node000009" class="edge">
<title>Node8&#45;&gt;Node9</title>
<g id="a_edge8_Node000008_Node000009"><a xlink:title=" ">
<path fill="none" stroke="#63b8ff" d="M801.25,-270.1C817.96,-270.32 835.57,-270.54 852.59,-270.76"/>
<polygon fill="#63b8ff" stroke="#63b8ff" points="852.13,-274.25 862.17,-270.88 852.22,-267.25 852.13,-274.25"/>
</a>
</g>
</g>
<!-- Node10&#45;&gt;Node6 -->
<g id="edge13_Node000010_Node000006" class="edge">
<title>Node10&#45;&gt;Node6</title>
<g id="a_edge13_Node000010_Node000006"><a xlink:title=" ">
<path fill="none" stroke="#63b8ff" d="M557.25,-182.44C578.97,-187.14 602.82,-192.3 625.15,-197.13"/>
<polygon fill="#63b8ff" stroke="#63b8ff" points="624.34,-200.54 634.85,-199.23 625.82,-193.69 624.34,-200.54"/>
</a>
</g>
</g>
<!-- Node11 -->
<g id="Node000011" class="node">
<title>Node11</title>
<g id="a_Node000011"><a xlink:href="class_easy___copier_1_1_infrastructure_1_1_native_window_helper.html#a57095da941364586505beed6d503f5f8" target="_top" xlink:title="Centers a child window over its owner window on screen.">
<polygon fill="white" stroke="#666666" points="801.25,-182 625.5,-182 625.5,-150 801.25,-150 801.25,-182"/>
<text xml:space="preserve" text-anchor="start" x="633.5" y="-168.5" font-family="Helvetica,sans-Serif" font-size="10.00">Easy_Copier.Infrastructure.</text>
<text xml:space="preserve" text-anchor="middle" x="713.38" y="-156.5" font-family="Helvetica,sans-Serif" font-size="10.00">NativeWindowHelper.CenterWindow</text>
</a>
</g>
</g>
<!-- Node10&#45;&gt;Node11 -->
<g id="edge10_Node000010_Node000011" class="edge">
<title>Node10&#45;&gt;Node11</title>
<g id="a_edge10_Node000010_Node000011"><a xlink:title=" ">
<path fill="none" stroke="#63b8ff" d="M567.64,-166C582.81,-166 598.69,-166 614.15,-166"/>
<polygon fill="#63b8ff" stroke="#63b8ff" points="613.81,-169.5 623.81,-166 613.81,-162.5 613.81,-169.5"/>
</a>
</g>
</g>
<!-- Node14 -->
<g id="Node000014" class="node">
<title>Node14</title>
<g id="a_Node000014"><a xlink:href="class_easy___copier_1_1_infrastructure_1_1_native_window_helper.html#a0fc9a1d529a9a4f81c43415a4cc755ae" target="_top" xlink:title="Sets the parent/owner window for a child window handle using Win32 SetWindowLongPtr.">
<polygon fill="white" stroke="#666666" points="790.75,-82 636,-82 636,-50 790.75,-50 790.75,-82"/>
<text xml:space="preserve" text-anchor="start" x="644" y="-68.5" font-family="Helvetica,sans-Serif" font-size="10.00">Easy_Copier.Infrastructure.</text>
<text xml:space="preserve" text-anchor="middle" x="713.38" y="-56.5" font-family="Helvetica,sans-Serif" font-size="10.00">NativeWindowHelper.SetOwner</text>
</a>
</g>
</g>
<!-- Node10&#45;&gt;Node14 -->
<g id="edge14_Node000010_Node000014" class="edge">
<title>Node10&#45;&gt;Node14</title>
<g id="a_edge14_Node000010_Node000014"><a xlink:title=" ">
<path fill="none" stroke="#63b8ff" d="M519.16,-149.6C558.71,-132.49 620.84,-105.6 663.93,-86.96"/>
<polygon fill="#63b8ff" stroke="#63b8ff" points="665.27,-90.19 673.06,-83.01 662.49,-83.77 665.27,-90.19"/>
</a>
</g>
</g>
<!-- Node12 -->
<g id="Node000012" class="node">
<title>Node12</title>
<g id="a_Node000012"><a xlink:href="class_easy___copier_1_1_infrastructure_1_1_native_window_helper.html#a24df81dd6869ac538f152a76346e232b" target="_top" xlink:title=" ">
<polygon fill="white" stroke="#666666" points="1043,-182 859.75,-182 859.75,-150 1043,-150 1043,-182"/>
<text xml:space="preserve" text-anchor="start" x="867.75" y="-168.5" font-family="Helvetica,sans-Serif" font-size="10.00">Easy_Copier.Infrastructure.</text>
<text xml:space="preserve" text-anchor="middle" x="951.38" y="-156.5" font-family="Helvetica,sans-Serif" font-size="10.00">NativeWindowHelper.GetWindowRect</text>
</a>
</g>
</g>
<!-- Node11&#45;&gt;Node12 -->
<g id="edge11_Node000011_Node000012" class="edge">
<title>Node11&#45;&gt;Node12</title>
<g id="a_edge11_Node000011_Node000012"><a xlink:title=" ">
<path fill="none" stroke="#63b8ff" d="M801.58,-166C816.8,-166 832.75,-166 848.32,-166"/>
<polygon fill="#63b8ff" stroke="#63b8ff" points="848.06,-169.5 858.06,-166 848.06,-162.5 848.06,-169.5"/>
</a>
</g>
</g>
<!-- Node13 -->
<g id="Node000013" class="node">
<title>Node13</title>
<g id="a_Node000013"><a xlink:href="class_easy___copier_1_1_infrastructure_1_1_native_window_helper.html#a7360d0d9cc4a75176e40dcbee62e1f16" target="_top" xlink:title=" ">
<polygon fill="white" stroke="#666666" points="1040.75,-132 862,-132 862,-100 1040.75,-100 1040.75,-132"/>
<text xml:space="preserve" text-anchor="start" x="870" y="-118.5" font-family="Helvetica,sans-Serif" font-size="10.00">Easy_Copier.Infrastructure.</text>
<text xml:space="preserve" text-anchor="middle" x="951.38" y="-106.5" font-family="Helvetica,sans-Serif" font-size="10.00">NativeWindowHelper.SetWindowPos</text>
</a>
</g>
</g>
<!-- Node11&#45;&gt;Node13 -->
<g id="edge12_Node000011_Node000013" class="edge">
<title>Node11&#45;&gt;Node13</title>
<g id="a_edge12_Node000011_Node000013"><a xlink:title=" ">
<path fill="none" stroke="#63b8ff" d="M791.98,-149.56C814.26,-144.84 838.73,-139.65 861.63,-134.8"/>
<polygon fill="#63b8ff" stroke="#63b8ff" points="862.19,-138.26 871.25,-132.76 860.74,-131.41 862.19,-138.26"/>
</a>
</g>
</g>
<!-- Node15 -->
<g id="Node000015" class="node">
<title>Node15</title>
<g id="a_Node000015"><a xlink:href="class_easy___copier_1_1_infrastructure_1_1_native_window_helper.html#accb5a28d072b25b841ac31c7b1837a29" target="_top" xlink:title=" ">
<polygon fill="white" stroke="#666666" points="1047.88,-82 854.88,-82 854.88,-50 1047.88,-50 1047.88,-82"/>
<text xml:space="preserve" text-anchor="start" x="862.88" y="-68.5" font-family="Helvetica,sans-Serif" font-size="10.00">Easy_Copier.Infrastructure.</text>
<text xml:space="preserve" text-anchor="middle" x="951.38" y="-56.5" font-family="Helvetica,sans-Serif" font-size="10.00">NativeWindowHelper.SetWindowLong32</text>
</a>
</g>
</g>
<!-- Node14&#45;&gt;Node15 -->
<g id="edge15_Node000014_Node000015" class="edge">
<title>Node14&#45;&gt;Node15</title>
<g id="a_edge15_Node000014_Node000015"><a xlink:title=" ">
<path fill="none" stroke="#63b8ff" d="M791,-66C807.67,-66 825.6,-66 843.21,-66"/>
<polygon fill="#63b8ff" stroke="#63b8ff" points="843.2,-69.5 853.2,-66 843.2,-62.5 843.2,-69.5"/>
</a>
</g>
</g>
<!-- Node16 -->
<g id="Node000016" class="node">
<title>Node16</title>
<g id="a_Node000016"><a xlink:href="class_easy___copier_1_1_infrastructure_1_1_native_window_helper.html#a543062cf731d87ec98a5fe3026945048" target="_top" xlink:title=" ">
<polygon fill="white" stroke="#666666" points="1054.25,-32 848.5,-32 848.5,0 1054.25,0 1054.25,-32"/>
<text xml:space="preserve" text-anchor="start" x="856.5" y="-18.5" font-family="Helvetica,sans-Serif" font-size="10.00">Easy_Copier.Infrastructure.</text>
<text xml:space="preserve" text-anchor="middle" x="951.38" y="-6.5" font-family="Helvetica,sans-Serif" font-size="10.00">NativeWindowHelper.SetWindowLongPtr64</text>
</a>
</g>
</g>
<!-- Node14&#45;&gt;Node16 -->
<g id="edge16_Node000014_Node000016" class="edge">
<title>Node14&#45;&gt;Node16</title>
<g id="a_edge16_Node000014_Node000016"><a xlink:title=" ">
<path fill="none" stroke="#63b8ff" d="M791,-49.77C813.44,-45.01 838.16,-39.77 861.3,-34.87"/>
<polygon fill="#63b8ff" stroke="#63b8ff" points="861.98,-38.31 871.04,-32.81 860.53,-31.46 861.98,-38.31"/>
</a>
</g>
</g>
</g>
</svg>
