<?xml version="1.0" encoding="UTF-8" standalone="no"?>
<!DOCTYPE svg PUBLIC "-//W3C//DTD SVG 1.1//EN"
 "http://www.w3.org/Graphics/SVG/1.1/DTD/svg11.dtd">
<!-- Generated by graphviz version 16.1.0 (20260904.0139)
 -->
<!-- Title: Easy_Copier.Views.AboutWindow.AboutWindow_obj1_Bindings.AboutWindow_obj1_BindingsTracking.UpdateChildListeners_ViewModel Pages: 1 -->
<!--zoomable 258 -->

<svg id="main" version="1.1" xmlns="http://www.w3.org/2000/svg" xmlns:xlink="http://www.w3.org/1999/xlink" xml:space="preserve">

<style type="text/css"><![CDATA[
.node, .edge {opacity: 0.7;}
.node.selected, .edge.selected {opacity: 1;}
.edge:hover path { stroke: red; }
.edge:hover polygon { stroke: red; fill: red; }
]]></style>

<defs>
  <circle id="rim" cx="0" cy="0" r="7"/>
  <circle id="rim2" cx="0" cy="0" r="3.5"/>
  <g id="zoomPlus">
    <use xlink:href="#rim" fill="#404040"><set attributeName="fill" to="#808080" begin="zoomplus.mouseover" end="zoomplus.mouseout"/></use>
    <path d="M-4,0h8M0,-4v8" fill="none" stroke="white" stroke-width="1.5" pointer-events="none"/>
  </g>
  <g id="zoomMin">
    <use xlink:href="#rim" fill="#404040"><set attributeName="fill" to="#808080" begin="zoomminus.mouseover" end="zoomminus.mouseout"/></use>
    <path d="M-4,0h8" fill="none" stroke="white" stroke-width="1.5" pointer-events="none"/>
  </g>
  <g id="arrowUp" transform="translate(30 24)">
    <use xlink:href="#rim"/>
    <path pointer-events="none" fill="none" stroke="white" stroke-width="1.5" d="M0,-3.0v7 M-2.5,-0.5L0,-3.0L2.5,-0.5"/>
  </g>
  <g id="arrowRight" transform="rotate(90) translate(36 -43)">
    <use xlink:href="#rim"/>
    <path pointer-events="none" fill="none" stroke="white" stroke-width="1.5" d="M0,-3.0v7 M-2.5,-0.5L0,-3.0L2.5,-0.5"/>
  </g>
  <g id="arrowDown" transform="rotate(180) translate(-30 -48)">
    <use xlink:href="#rim"/>
    <path pointer-events="none" fill="none" stroke="white" stroke-width="1.5" d="M0,-3.0v7 M-2.5,-0.5L0,-3.0L2.5,-0.5"/>
  </g>
  <g id="arrowLeft" transform="rotate(270) translate(-36 17)">
    <use xlink:href="#rim"/>
    <path pointer-events="none" fill="none" stroke="white" stroke-width="1.5" d="M0,-3.0v7 M-2.5,-0.5L0,-3.0L2.5,-0.5"/>
  </g>
  <g id="resetDef">
    <use xlink:href="#rim2" fill="#404040"><set attributeName="fill" to="#808080" begin="reset.mouseover" end="reset.mouseout"/></use>
  </g>
</defs>
<script type="application/ecmascript" xlink:href="svg.min.js"/>
<svg id="graph" class="graph" data-view-width="1254" data-view-height="258" data-section-id="dynsection-20">
<g id="viewport">
<title>Easy_Copier.Views.AboutWindow.AboutWindow_obj1_Bindings.AboutWindow_obj1_BindingsTracking.UpdateChildListeners_ViewModel</title>
<!-- Node1 -->
<g id="Node000001" class="node">
<title>Node1</title>
<g id="a_Node000001"><a xlink:title=" ">
<polygon fill="#999999" stroke="#666666" points="221.5,-94 0,-94 0,-38 221.5,-38 221.5,-94"/>
<text xml:space="preserve" text-anchor="start" x="8" y="-80.5" font-family="Helvetica,sans-Serif" font-size="10.00">Easy_Copier.Views.AboutWindow.</text>
<text xml:space="preserve" text-anchor="start" x="8" y="-68.5" font-family="Helvetica,sans-Serif" font-size="10.00">AboutWindow_obj1_Bindings.AboutWindow</text>
<text xml:space="preserve" text-anchor="start" x="8" y="-56.5" font-family="Helvetica,sans-Serif" font-size="10.00">_obj1_BindingsTracking.UpdateChildListeners_</text>
<text xml:space="preserve" text-anchor="middle" x="110.75" y="-44.5" font-family="Helvetica,sans-Serif" font-size="10.00">ViewModel</text>
</a>
</g>
</g>
<!-- Node2 -->
<g id="Node000002" class="node">
<title>Node2</title>
<g id="a_Node000002"><a xlink:href="class_easy___copier_1_1_views_1_1_about_window_1_1_about_window__obj1___bindings_1_1_about_window__obj1___bindings_tracking.html#a56e17f4459780be29d64513d9b28785f" target="_top" xlink:title=" ">
<polygon fill="white" stroke="#666666" points="509,-138 257.5,-138 257.5,-94 509,-94 509,-138"/>
<text xml:space="preserve" text-anchor="start" x="265.5" y="-124.5" font-family="Helvetica,sans-Serif" font-size="10.00">Easy_Copier.Views.AboutWindow.</text>
<text xml:space="preserve" text-anchor="start" x="265.5" y="-112.5" font-family="Helvetica,sans-Serif" font-size="10.00">AboutWindow_obj1_Bindings.AboutWindow</text>
<text xml:space="preserve" text-anchor="middle" x="383.25" y="-100.5" font-family="Helvetica,sans-Serif" font-size="10.00">_obj1_BindingsTracking.PropertyChanged_ViewModel</text>
</a>
</g>
</g>
<!-- Node1&#45;&gt;Node2 -->
<g id="edge1_Node000001_Node000002" class="edge">
<title>Node1&#45;&gt;Node2</title>
<g id="a_edge1_Node000001_Node000002"><a xlink:title=" ">
<path fill="none" stroke="#63b8ff" d="M221.77,-86.34C230.92,-88.03 240.23,-89.75 249.53,-91.47"/>
<polygon fill="#63b8ff" stroke="#63b8ff" points="248.89,-94.91 259.36,-93.28 250.16,-88.02 248.89,-94.91"/>
</a>
</g>
</g>
<!-- Node3 -->
<g id="Node000003" class="node">
<title>Node3</title>
<g id="a_Node000003"><a xlink:href="class_easy___copier_1_1_views_1_1_about_window_1_1_about_window__obj1___bindings.html#a8c872a8a1213d7ee7c1c5b685655dc69" target="_top" xlink:title=" ">
<polygon fill="white" stroke="#666666" points="1002.25,-119 795.75,-119 795.75,-75 1002.25,-75 1002.25,-119"/>
<text xml:space="preserve" text-anchor="start" x="803.75" y="-105.5" font-family="Helvetica,sans-Serif" font-size="10.00">Easy_Copier.Views.AboutWindow.</text>
<text xml:space="preserve" text-anchor="start" x="803.75" y="-93.5" font-family="Helvetica,sans-Serif" font-size="10.00">AboutWindow_obj1_Bindings.AboutWindow</text>
<text xml:space="preserve" text-anchor="middle" x="899" y="-81.5" font-family="Helvetica,sans-Serif" font-size="10.00">_obj1_Bindings</text>
</a>
</g>
</g>
<!-- Node2&#45;&gt;Node3 -->
<g id="edge2_Node000002_Node000003" class="edge">
<title>Node2&#45;&gt;Node3</title>
<g id="a_edge2_Node000002_Node000003"><a xlink:title=" ">
<path fill="none" stroke="#63b8ff" d="M509.27,-111.38C593.1,-108.28 702.62,-104.23 784.05,-101.21"/>
<polygon fill="#63b8ff" stroke="#63b8ff" points="783.97,-104.72 793.83,-100.85 783.71,-97.72 783.97,-104.72"/>
</a>
</g>
</g>
<!-- Node5 -->
<g id="Node000005" class="node">
<title>Node5</title>
<g id="a_Node000005"><a xlink:href="class_easy___copier_1_1_views_1_1_about_window_1_1_about_window__obj1___bindings_1_1_about_window__obj1___bindings_tracking.html#a2114f7c77c69acc36c86902e019b5f5c" target="_top" xlink:title=" ">
<polygon fill="white" stroke="#666666" points="758.25,-88 545,-88 545,-44 758.25,-44 758.25,-88"/>
<text xml:space="preserve" text-anchor="start" x="553" y="-74.5" font-family="Helvetica,sans-Serif" font-size="10.00">Easy_Copier.Views.AboutWindow.</text>
<text xml:space="preserve" text-anchor="start" x="553" y="-62.5" font-family="Helvetica,sans-Serif" font-size="10.00">AboutWindow_obj1_Bindings.AboutWindow</text>
<text xml:space="preserve" text-anchor="middle" x="651.62" y="-50.5" font-family="Helvetica,sans-Serif" font-size="10.00">_obj1_BindingsTracking.TryGetBindingObject</text>
</a>
</g>
</g>
<!-- Node2&#45;&gt;Node5 -->
<g id="edge5_Node000002_Node000005" class="edge">
<title>Node2&#45;&gt;Node5</title>
<g id="a_edge5_Node000002_Node000005"><a xlink:title=" ">
<path fill="none" stroke="#63b8ff" d="M503.8,-93.56C513.75,-91.69 523.8,-89.81 533.73,-87.94"/>
<polygon fill="#63b8ff" stroke="#63b8ff" points="534.2,-91.41 543.39,-86.13 532.91,-84.53 534.2,-91.41"/>
</a>
</g>
</g>
<!-- Node7 -->
<g id="Node000007" class="node">
<title>Node7</title>
<g id="a_Node000007"><a xlink:href="class_easy___copier_1_1_views_1_1_about_window_1_1_about_window__obj1___bindings.html#aa3eb5cd2a65ce438a3cd5965fc102dcc" target="_top" xlink:title=" ">
<polygon fill="white" stroke="#666666" points="740.25,-188 563,-188 563,-144 740.25,-144 740.25,-188"/>
<text xml:space="preserve" text-anchor="start" x="571" y="-174.5" font-family="Helvetica,sans-Serif" font-size="10.00">Easy_Copier.Views.AboutWindow.</text>
<text xml:space="preserve" text-anchor="start" x="571" y="-162.5" font-family="Helvetica,sans-Serif" font-size="10.00">AboutWindow_obj1_Bindings.Update</text>
<text xml:space="preserve" text-anchor="middle" x="651.62" y="-150.5" font-family="Helvetica,sans-Serif" font-size="10.00">_ViewModel_AppVersion</text>
</a>
</g>
</g>
<!-- Node2&#45;&gt;Node7 -->
<g id="edge9_Node000002_Node000007" class="edge">
<title>Node2&#45;&gt;Node7</title>
<g id="a_edge9_Node000002_Node000007"><a xlink:title=" ">
<path fill="none" stroke="#63b8ff" d="M503.8,-138.44C519.72,-141.43 535.89,-144.46 551.41,-147.38"/>
<polygon fill="#63b8ff" stroke="#63b8ff" points="550.62,-150.79 561.1,-149.19 551.91,-143.91 550.62,-150.79"/>
</a>
</g>
</g>
<!-- Node9 -->
<g id="Node000009" class="node">
<title>Node9</title>
<g id="a_Node000009"><a xlink:href="class_easy___copier_1_1_views_1_1_about_window_1_1_about_window__obj1___bindings.html#acda052eeb2fe6128ad0b23e1658d8429" target="_top" xlink:title=" ">
<polygon fill="white" stroke="#666666" points="740.25,-250 563,-250 563,-206 740.25,-206 740.25,-250"/>
<text xml:space="preserve" text-anchor="start" x="571" y="-236.5" font-family="Helvetica,sans-Serif" font-size="10.00">Easy_Copier.Views.AboutWindow.</text>
<text xml:space="preserve" text-anchor="start" x="571" y="-224.5" font-family="Helvetica,sans-Serif" font-size="10.00">AboutWindow_obj1_Bindings.Update</text>
<text xml:space="preserve" text-anchor="middle" x="651.62" y="-212.5" font-family="Helvetica,sans-Serif" font-size="10.00">_ViewModel_DeveloperInfo</text>
</a>
</g>
</g>
<!-- Node2&#45;&gt;Node9 -->
<g id="edge11_Node000002_Node000009" class="edge">
<title>Node2&#45;&gt;Node9</title>
<g id="a_edge11_Node000002_Node000009"><a xlink:title=" ">
<path fill="none" stroke="#63b8ff" d="M423.62,-138.37C455.61,-155.92 502.27,-180.13 545,-197 549.13,-198.63 553.38,-200.22 557.7,-201.77"/>
<polygon fill="#63b8ff" stroke="#63b8ff" points="556.5,-205.06 567.1,-205.01 558.79,-198.44 556.5,-205.06"/>
</a>
</g>
</g>
<!-- Node4 -->
<g id="Node000004" class="node">
<title>Node4</title>
<g id="a_Node000004"><a xlink:href="class_easy___copier_1_1_views_1_1_about_window_1_1_about_window__obj1___bindings_1_1_about_window__obj1___bindings_tracking.html#a801960b3355bf541740eddd44b8e9fad" target="_top" xlink:title=" ">
<polygon fill="white" stroke="#666666" points="1246.25,-125 1039.75,-125 1039.75,-69 1246.25,-69 1246.25,-125"/>
<text xml:space="preserve" text-anchor="start" x="1047.75" y="-111.5" font-family="Helvetica,sans-Serif" font-size="10.00">Easy_Copier.Views.AboutWindow.</text>
<text xml:space="preserve" text-anchor="start" x="1047.75" y="-99.5" font-family="Helvetica,sans-Serif" font-size="10.00">AboutWindow_obj1_Bindings.AboutWindow</text>
<text xml:space="preserve" text-anchor="start" x="1047.75" y="-87.5" font-family="Helvetica,sans-Serif" font-size="10.00">_obj1_BindingsTracking.AboutWindow</text>
<text xml:space="preserve" text-anchor="middle" x="1143" y="-75.5" font-family="Helvetica,sans-Serif" font-size="10.00">_obj1_BindingsTracking</text>
</a>
</g>
</g>
<!-- Node3&#45;&gt;Node4 -->
<g id="edge3_Node000003_Node000004" class="edge">
<title>Node3&#45;&gt;Node4</title>
<g id="a_edge3_Node000003_Node000004"><a xlink:title=" ">
<path fill="none" stroke="#63b8ff" d="M1002.63,-90.32C1011.14,-90.25 1019.77,-90.24 1028.36,-90.26"/>
<polygon fill="#63b8ff" stroke="#63b8ff" points="1028.07,-93.76 1038.08,-90.31 1028.1,-86.76 1028.07,-93.76"/>
</a>
</g>
</g>
<!-- Node4&#45;&gt;Node3 -->
<g id="edge4_Node000004_Node000003" class="edge">
<title>Node4&#45;&gt;Node3</title>
<g id="a_edge4_Node000004_Node000003"><a xlink:title=" ">
<path fill="none" stroke="#63b8ff" d="M1039.6,-103.68C1031.09,-103.74 1022.46,-103.76 1013.87,-103.74"/>
<polygon fill="#63b8ff" stroke="#63b8ff" points="1014.16,-100.24 1004.14,-103.69 1014.12,-107.24 1014.16,-100.24"/>
</a>
</g>
</g>
<!-- Node5&#45;&gt;Node3 -->
<g id="edge6_Node000005_Node000003" class="edge">
<title>Node5&#45;&gt;Node3</title>
<g id="a_edge6_Node000005_Node000003"><a xlink:title=" ">
<path fill="none" stroke="#63b8ff" d="M758.47,-79.37C767.03,-80.45 775.71,-81.55 784.33,-82.64"/>
<polygon fill="#63b8ff" stroke="#63b8ff" points="783.76,-86.09 794.11,-83.88 784.63,-79.15 783.76,-86.09"/>
</a>
</g>
</g>
<!-- Node6 -->
<g id="Node000006" class="node">
<title>Node6</title>
<g id="a_Node000006"><a xlink:href="class_easy___copier_1_1_views_1_1_about_window_1_1_about_window__obj1___bindings_1_1_about_window__obj1___bindings_tracking.html#a179f12917ff85490d10c8c3cc8ee1729" target="_top" xlink:title=" ">
<polygon fill="white" stroke="#666666" points="1003.75,-44 794.25,-44 794.25,0 1003.75,0 1003.75,-44"/>
<text xml:space="preserve" text-anchor="start" x="802.25" y="-30.5" font-family="Helvetica,sans-Serif" font-size="10.00">Easy_Copier.Views.AboutWindow.</text>
<text xml:space="preserve" text-anchor="start" x="802.25" y="-18.5" font-family="Helvetica,sans-Serif" font-size="10.00">AboutWindow_obj1_Bindings.AboutWindow</text>
<text xml:space="preserve" text-anchor="middle" x="899" y="-6.5" font-family="Helvetica,sans-Serif" font-size="10.00">_obj1_BindingsTracking.ReleaseAllListeners</text>
</a>
</g>
</g>
<!-- Node5&#45;&gt;Node6 -->
<g id="edge7_Node000005_Node000006" class="edge">
<title>Node5&#45;&gt;Node6</title>
<g id="a_edge7_Node000005_Node000006"><a xlink:title=" ">
<path fill="none" stroke="#63b8ff" d="M758.47,-47.02C766.58,-45.57 774.8,-44.09 782.97,-42.63"/>
<polygon fill="#63b8ff" stroke="#63b8ff" points="783.35,-46.11 792.57,-40.9 782.11,-39.22 783.35,-46.11"/>
</a>
</g>
</g>
<!-- Node6&#45;&gt;Node1 -->
<g id="edge8_Node000006_Node000001" class="edge">
<title>Node6&#45;&gt;Node1</title>
<g id="a_edge8_Node000006_Node000001"><a xlink:title=" ">
<path fill="none" stroke="#63b8ff" d="M794.08,-24.88C723.74,-27.06 628.74,-30.46 545,-35 439.5,-40.72 319.71,-49.46 232.87,-56.21"/>
<polygon fill="#63b8ff" stroke="#63b8ff" points="232.85,-52.7 223.15,-56.96 233.39,-59.68 232.85,-52.7"/>
</a>
</g>
</g>
<!-- Node8 -->
<g id="Node000008" class="node">
<title>Node8</title>
<g id="a_Node000008"><a xlink:href="class_easy___copier_1_1_views_1_1_about_window_1_1_xaml_binding_setters.html#abee18a0a4cc864ae5815b1efee6e0d36" target="_top" xlink:title=" ">
<polygon fill="white" stroke="#666666" points="986.12,-219 811.88,-219 811.88,-175 986.12,-175 986.12,-219"/>
<text xml:space="preserve" text-anchor="start" x="819.88" y="-205.5" font-family="Helvetica,sans-Serif" font-size="10.00">Easy_Copier.Views.AboutWindow.</text>
<text xml:space="preserve" text-anchor="start" x="819.88" y="-193.5" font-family="Helvetica,sans-Serif" font-size="10.00">XamlBindingSetters.Set_Microsoft</text>
<text xml:space="preserve" text-anchor="middle" x="899" y="-181.5" font-family="Helvetica,sans-Serif" font-size="10.00">_UI_Xaml_Controls_TextBlock_Text</text>
</a>
</g>
</g>
<!-- Node7&#45;&gt;Node8 -->
<g id="edge10_Node000007_Node000008" class="edge">
<title>Node7&#45;&gt;Node8</title>
<g id="a_edge10_Node000007_Node000008"><a xlink:title=" ">
<path fill="none" stroke="#63b8ff" d="M740.52,-177.1C759.92,-179.56 780.59,-182.17 800.35,-184.66"/>
<polygon fill="#63b8ff" stroke="#63b8ff" points="799.68,-188.11 810.04,-185.89 800.56,-181.16 799.68,-188.11"/>
</a>
</g>
</g>
<!-- Node9&#45;&gt;Node8 -->
<g id="edge12_Node000009_Node000008" class="edge">
<title>Node9&#45;&gt;Node8</title>
<g id="a_edge12_Node000009_Node000008"><a xlink:title=" ">
<path fill="none" stroke="#63b8ff" d="M740.52,-216.9C759.92,-214.44 780.59,-211.83 800.35,-209.34"/>
<polygon fill="#63b8ff" stroke="#63b8ff" points="800.56,-212.84 810.04,-208.11 799.68,-205.89 800.56,-212.84"/>
</a>
</g>
</g>
</g>
</svg>

<g id="navigator" transform="translate(0 0)" fill="#404254">
  <rect fill="#f2f5e9" fill-opacity="0.5" stroke="#606060" stroke-width=".5" x="0" y="0" width="60" height="60"/>
  <use id="zoomplus" xlink:href="#zoomPlus" x="17" y="9" data-zoom="in"/>
  <use id="zoomminus" xlink:href="#zoomMin" x="42" y="9" data-zoom="out"/>
  <use id="reset" xlink:href="#resetDef" x="30" y="36" data-reset="true"/>
  <use id="arrowup" xlink:href="#arrowUp" x="0" y="0" data-pan-x="0" data-pan-y="-1"/>
  <use id="arrowright" xlink:href="#arrowRight" x="0" y="0" data-pan-x="1" data-pan-y="0"/>
  <use id="arrowdown" xlink:href="#arrowDown" x="0" y="0" data-pan-x="0" data-pan-y="1"/>
  <use id="arrowleft" xlink:href="#arrowLeft" x="0" y="0" data-pan-x="-1" data-pan-y="0"/>
</g>
<svg viewBox="0 0 15 15" width="100%" height="30px" preserveAspectRatio="xMaxYMin meet">
 <g id="arrow_out" transform="scale(0.3 0.3)">
  <a xlink:href="class_easy___copier_1_1_views_1_1_about_window_1_1_about_window__obj1___bindings_1_1_about_window__obj1___bindings_tracking_ad003d09ae192ec6d31627d5519b2edf3_cgraph_org.svg" target="_base">
   <rect id="button" ry="5" rx="5" y="6" x="6" height="38" width="38"
        fill="#f2f5e9" fill-opacity="0.5" stroke="#606060" stroke-width="1.0"/>
   <path id="arrow"
     d="M 11.500037,31.436501 C 11.940474,20.09759 22.043105,11.32322 32.158766,21.979434 L 37.068811,17.246167 C 37.068811,17.246167 37.088388,32 37.088388,32 L 22.160133,31.978069 C 22.160133,31.978069 26.997745,27.140456 26.997745,27.140456 C 18.528582,18.264221 13.291696,25.230495 11.500037,31.436501 z"
     style="fill:#404040;"/>
  </a>
 </g>
</svg>

<style type='text/css'>
<![CDATA[
[data-mouse-over-selected='false'] { opacity: 0.7; }
[data-mouse-over-selected='true']  { opacity: 1.0; }
]]>
</style>
</svg>
