<?xml version="1.0" encoding="UTF-8" standalone="no"?>
<!DOCTYPE svg PUBLIC "-//W3C//DTD SVG 1.1//EN"
 "http://www.w3.org/Graphics/SVG/1.1/DTD/svg11.dtd">
<!-- Generated by graphviz version 16.1.0 (20260904.0139)
 -->
<!-- Title: Easy_Copier.Infrastructure.FormattingHelpers.FormatBytes Pages: 1 -->
<!--zoomable 264 -->

<svg id="main" version="1.1" xmlns="http://www.w3.org/2000/svg" xmlns:xlink="http://www.w3.org/1999/xlink" xml:space="preserve">

<style type="text/css"><![CDATA[
.node, .edge {opacity: 0.7;}
.node.selected, .edge.selected {opacity: 1;}
.edge:hover path { stroke: red; }
.edge:hover polygon { stroke: red; fill: red; }
]]></style>

<defs>
  <circle id="rim" cx="0" cy="0" r="7"/>
  <circle id="rim2" cx="0" cy="0" r="3.5"/>
  <g id="zoomPlus">
    <use xlink:href="#rim" fill="#404040"><set attributeName="fill" to="#808080" begin="zoomplus.mouseover" end="zoomplus.mouseout"/></use>
    <path d="M-4,0h8M0,-4v8" fill="none" stroke="white" stroke-width="1.5" pointer-events="none"/>
  </g>
  <g id="zoomMin">
    <use xlink:href="#rim" fill="#404040"><set attributeName="fill" to="#808080" begin="zoomminus.mouseover" end="zoomminus.mouseout"/></use>
    <path d="M-4,0h8" fill="none" stroke="white" stroke-width="1.5" pointer-events="none"/>
  </g>
  <g id="arrowUp" transform="translate(30 24)">
    <use xlink:href="#rim"/>
    <path pointer-events="none" fill="none" stroke="white" stroke-width="1.5" d="M0,-3.0v7 M-2.5,-0.5L0,-3.0L2.5,-0.5"/>
  </g>
  <g id="arrowRight" transform="rotate(90) translate(36 -43)">
    <use xlink:href="#rim"/>
    <path pointer-events="none" fill="none" stroke="white" stroke-width="1.5" d="M0,-3.0v7 M-2.5,-0.5L0,-3.0L2.5,-0.5"/>
  </g>
  <g id="arrowDown" transform="rotate(180) translate(-30 -48)">
    <use xlink:href="#rim"/>
    <path pointer-events="none" fill="none" stroke="white" stroke-width="1.5" d="M0,-3.0v7 M-2.5,-0.5L0,-3.0L2.5,-0.5"/>
  </g>
  <g id="arrowLeft" transform="rotate(270) translate(-36 17)">
    <use xlink:href="#rim"/>
    <path pointer-events="none" fill="none" stroke="white" stroke-width="1.5" d="M0,-3.0v7 M-2.5,-0.5L0,-3.0L2.5,-0.5"/>
  </g>
  <g id="resetDef">
    <use xlink:href="#rim2" fill="#404040"><set attributeName="fill" to="#808080" begin="reset.mouseover" end="reset.mouseout"/></use>
  </g>
</defs>
<script type="application/ecmascript" xlink:href="svg.min.js"/>
<svg id="graph" class="graph" data-view-width="643" data-view-height="264" data-section-id="dynsection-1">
<g id="viewport">
<title>Easy_Copier.Infrastructure.FormattingHelpers.FormatBytes</title>
<!-- Node1 -->
<g id="Node000001" class="node">
<title>Node1</title>
<g id="a_Node000001"><a xlink:title="Formats a byte size into a human&#45;readable string with units (e.g. KB, MB, GB).">
<polygon fill="#999999" stroke="#666666" points="634.5,-144 479,-144 479,-112 634.5,-112 634.5,-144"/>
<text xml:space="preserve" text-anchor="start" x="487" y="-130.5" font-family="Helvetica,sans-Serif" font-size="10.00">Easy_Copier.Infrastructure.</text>
<text xml:space="preserve" text-anchor="middle" x="556.75" y="-118.5" font-family="Helvetica,sans-Serif" font-size="10.00">FormattingHelpers.FormatBytes</text>
</a>
</g>
</g>
<!-- Node2 -->
<g id="Node000002" class="node">
<title>Node2</title>
<g id="a_Node000002"><a xlink:href="class_easy___copier_1_1_view_models_1_1_game_details_view_model.html#a0e0947f8ec366fe0b42c22e8fc845abf" target="_top" xlink:title=" ">
<polygon fill="white" stroke="#666666" points="429.12,-256 263.12,-256 263.12,-212 429.12,-212 429.12,-256"/>
<text xml:space="preserve" text-anchor="start" x="271.12" y="-242.5" font-family="Helvetica,sans-Serif" font-size="10.00">Easy_Copier.ViewModels.Game</text>
<text xml:space="preserve" text-anchor="start" x="271.12" y="-230.5" font-family="Helvetica,sans-Serif" font-size="10.00">DetailsViewModel.CalculateFolder</text>
<text xml:space="preserve" text-anchor="middle" x="346.12" y="-218.5" font-family="Helvetica,sans-Serif" font-size="10.00">SizeAsync</text>
</a>
</g>
</g>
<!-- Node1&#45;&gt;Node2 -->
<g id="edge1_Node000001_Node000002" class="edge">
<title>Node1&#45;&gt;Node2</title>
<g id="a_edge1_Node000001_Node000002"><a xlink:title=" ">
<path fill="none" stroke="#63b8ff" d="M526.06,-151.04C504.07,-167.26 472.88,-188.57 443,-203 436.7,-206.04 430.03,-208.89 423.25,-211.53"/>
<polygon fill="#63b8ff" stroke="#63b8ff" points="528.06,-153.91 533.97,-145.12 523.87,-148.31 528.06,-153.91"/>
</a>
</g>
</g>
<!-- Node4 -->
<g id="Node000004" class="node">
<title>Node4</title>
<g id="a_Node000004"><a xlink:href="class_easy___copier_1_1_converters_1_1_bytes_to_size_converter.html#afd881c96660a6d9a6f1e366e9d562bde" target="_top" xlink:title=" ">
<polygon fill="white" stroke="#666666" points="422,-194 270.25,-194 270.25,-162 422,-162 422,-194"/>
<text xml:space="preserve" text-anchor="start" x="278.25" y="-180.5" font-family="Helvetica,sans-Serif" font-size="10.00">Easy_Copier.Converters.Bytes</text>
<text xml:space="preserve" text-anchor="middle" x="346.12" y="-168.5" font-family="Helvetica,sans-Serif" font-size="10.00">ToSizeConverter.Convert</text>
</a>
</g>
</g>
<!-- Node1&#45;&gt;Node4 -->
<g id="edge3_Node000001_Node000004" class="edge">
<title>Node1&#45;&gt;Node4</title>
<g id="a_edge3_Node000001_Node000004"><a xlink:title=" ">
<path fill="none" stroke="#63b8ff" d="M475.96,-147.12C456.12,-151.88 435.02,-156.93 415.77,-161.55"/>
<polygon fill="#63b8ff" stroke="#63b8ff" points="476.77,-150.53 485.68,-144.79 475.14,-143.72 476.77,-150.53"/>
</a>
</g>
</g>
<!-- Node5 -->
<g id="Node000005" class="node">
<title>Node5</title>
<g id="a_Node000005"><a xlink:href="class_easy___copier_1_1_models_1_1_file_system_item.html#ac1a889bf3df5731c41fb553725cd0226" target="_top" xlink:title=" ">
<polygon fill="white" stroke="#666666" points="425.75,-144 266.5,-144 266.5,-112 425.75,-112 425.75,-144"/>
<text xml:space="preserve" text-anchor="start" x="274.5" y="-130.5" font-family="Helvetica,sans-Serif" font-size="10.00">Easy_Copier.Models.FileSystem</text>
<text xml:space="preserve" text-anchor="middle" x="346.12" y="-118.5" font-family="Helvetica,sans-Serif" font-size="10.00">Item.FileSystemItem</text>
</a>
</g>
</g>
<!-- Node1&#45;&gt;Node5 -->
<g id="edge4_Node000001_Node000005" class="edge">
<title>Node1&#45;&gt;Node5</title>
<g id="a_edge4_Node000001_Node000005"><a xlink:title=" ">
<path fill="none" stroke="#63b8ff" d="M467.25,-128C453.55,-128 439.47,-128 425.99,-128"/>
<polygon fill="#63b8ff" stroke="#63b8ff" points="467.14,-131.5 477.14,-128 467.14,-124.5 467.14,-131.5"/>
</a>
</g>
</g>
<!-- Node6 -->
<g id="Node000006" class="node">
<title>Node6</title>
<g id="a_Node000006"><a xlink:href="class_easy___copier_1_1_infrastructure_1_1_dialog_service.html#a2202989f8a7cc94da59a0b1c8bf4c229" target="_top" xlink:title=" ">
<polygon fill="white" stroke="#666666" points="443,-94 249.25,-94 249.25,-62 443,-62 443,-94"/>
<text xml:space="preserve" text-anchor="start" x="257.25" y="-80.5" font-family="Helvetica,sans-Serif" font-size="10.00">Easy_Copier.Infrastructure.</text>
<text xml:space="preserve" text-anchor="middle" x="346.12" y="-68.5" font-family="Helvetica,sans-Serif" font-size="10.00">DialogService.ShowConflictDialogAsync</text>
</a>
</g>
</g>
<!-- Node1&#45;&gt;Node6 -->
<g id="edge6_Node000001_Node000006" class="edge">
<title>Node1&#45;&gt;Node6</title>
<g id="a_edge6_Node000001_Node000006"><a xlink:title=" ">
<path fill="none" stroke="#63b8ff" d="M475.96,-108.88C456.12,-104.12 435.02,-99.07 415.77,-94.45"/>
<polygon fill="#63b8ff" stroke="#63b8ff" points="475.14,-112.28 485.68,-111.21 476.77,-105.47 475.14,-112.28"/>
</a>
</g>
</g>
<!-- Node7 -->
<g id="Node000007" class="node">
<title>Node7</title>
<g id="a_Node000007"><a xlink:href="class_easy___copier_1_1_interop_1_1_file_operation_progress_sink.html#ac0fca37cba9cef3d6d058af3b33f1f4a" target="_top" xlink:title=" ">
<polygon fill="white" stroke="#666666" points="421.62,-44 270.62,-44 270.62,0 421.62,0 421.62,-44"/>
<text xml:space="preserve" text-anchor="start" x="278.62" y="-30.5" font-family="Helvetica,sans-Serif" font-size="10.00">Easy_Copier.Interop.File</text>
<text xml:space="preserve" text-anchor="start" x="278.62" y="-18.5" font-family="Helvetica,sans-Serif" font-size="10.00">OperationProgressSink.Update</text>
<text xml:space="preserve" text-anchor="middle" x="346.12" y="-6.5" font-family="Helvetica,sans-Serif" font-size="10.00">Progress</text>
</a>
</g>
</g>
<!-- Node1&#45;&gt;Node7 -->
<g id="edge7_Node000001_Node000007" class="edge">
<title>Node1&#45;&gt;Node7</title>
<g id="a_edge7_Node000001_Node000007"><a xlink:title=" ">
<path fill="none" stroke="#63b8ff" d="M526.06,-104.96C504.07,-88.74 472.88,-67.43 443,-53 436.3,-49.77 429.19,-46.75 421.98,-43.97"/>
<polygon fill="#63b8ff" stroke="#63b8ff" points="523.87,-107.69 533.97,-110.88 528.06,-102.09 523.87,-107.69"/>
</a>
</g>
</g>
<!-- Node3 -->
<g id="Node000003" class="node">
<title>Node3</title>
<g id="a_Node000003"><a xlink:href="class_easy___copier_1_1_view_models_1_1_game_details_view_model.html#a85b8fc7ff6d6a87de050cf7e5ea5ddd6" target="_top" xlink:title=" ">
<polygon fill="white" stroke="#666666" points="213.25,-197 0,-197 0,-165 213.25,-165 213.25,-197"/>
<text xml:space="preserve" text-anchor="start" x="8" y="-183.5" font-family="Helvetica,sans-Serif" font-size="10.00">Easy_Copier.ViewModels.Game</text>
<text xml:space="preserve" text-anchor="middle" x="106.63" y="-171.5" font-family="Helvetica,sans-Serif" font-size="10.00">DetailsViewModel.LoadFolderContentsAsync</text>
</a>
</g>
</g>
<!-- Node2&#45;&gt;Node3 -->
<g id="edge2_Node000002_Node000003" class="edge">
<title>Node2&#45;&gt;Node3</title>
<g id="a_edge2_Node000002_Node000003"><a xlink:title=" ">
<path fill="none" stroke="#63b8ff" d="M251.77,-213.17C228.45,-207.96 203.77,-202.45 181.54,-197.49"/>
<polygon fill="#63b8ff" stroke="#63b8ff" points="250.73,-216.52 261.25,-215.28 252.25,-209.69 250.73,-216.52"/>
</a>
</g>
</g>
<!-- Node5&#45;&gt;Node3 -->
<g id="edge5_Node000005_Node000003" class="edge">
<title>Node5&#45;&gt;Node3</title>
<g id="a_edge5_Node000005_Node000003"><a xlink:title=" ">
<path fill="none" stroke="#63b8ff" d="M260.38,-146.91C234.58,-152.67 206.44,-158.95 181.42,-164.53"/>
<polygon fill="#63b8ff" stroke="#63b8ff" points="260.81,-150.4 269.8,-144.81 259.28,-143.57 260.81,-150.4"/>
</a>
</g>
</g>
</g>
</svg>

<g id="navigator" transform="translate(0 0)" fill="#404254">
  <rect fill="#f2f5e9" fill-opacity="0.5" stroke="#606060" stroke-width=".5" x="0" y="0" width="60" height="60"/>
  <use id="zoomplus" xlink:href="#zoomPlus" x="17" y="9" data-zoom="in"/>
  <use id="zoomminus" xlink:href="#zoomMin" x="42" y="9" data-zoom="out"/>
  <use id="reset" xlink:href="#resetDef" x="30" y="36" data-reset="true"/>
  <use id="arrowup" xlink:href="#arrowUp" x="0" y="0" data-pan-x="0" data-pan-y="-1"/>
  <use id="arrowright" xlink:href="#arrowRight" x="0" y="0" data-pan-x="1" data-pan-y="0"/>
  <use id="arrowdown" xlink:href="#arrowDown" x="0" y="0" data-pan-x="0" data-pan-y="1"/>
  <use id="arrowleft" xlink:href="#arrowLeft" x="0" y="0" data-pan-x="-1" data-pan-y="0"/>
</g>
<svg viewBox="0 0 15 15" width="100%" height="30px" preserveAspectRatio="xMaxYMin meet">
 <g id="arrow_out" transform="scale(0.3 0.3)">
  <a xlink:href="class_easy___copier_1_1_infrastructure_1_1_formatting_helpers_a84e7e7edafb126e73d0143de49561316_icgraph_org.svg" target="_base">
   <rect id="button" ry="5" rx="5" y="6" x="6" height="38" width="38"
        fill="#f2f5e9" fill-opacity="0.5" stroke="#606060" stroke-width="1.0"/>
   <path id="arrow"
     d="M 11.500037,31.436501 C 11.940474,20.09759 22.043105,11.32322 32.158766,21.979434 L 37.068811,17.246167 C 37.068811,17.246167 37.088388,32 37.088388,32 L 22.160133,31.978069 C 22.160133,31.978069 26.997745,27.140456 26.997745,27.140456 C 18.528582,18.264221 13.291696,25.230495 11.500037,31.436501 z"
     style="fill:#404040;"/>
  </a>
 </g>
</svg>

<style type='text/css'>
<![CDATA[
[data-mouse-over-selected='false'] { opacity: 0.7; }
[data-mouse-over-selected='true']  { opacity: 1.0; }
]]>
</style>
</svg>
